<svg xmlns="http://www.w3.org/2000/svg" viewBox="0 0 800 320"><path fill="#300" d="M335.4 135.7c8.2 2 2.5 18.2-2.5 22.3-21.8 19.5-53.7-16.6-31-36.3 20.6-18.1 54.8-11 80.6-12 16.4.2 42.8.2 58.2.6 7.2.8 14.9-2.4 17.5 3.8-26.2.3-55.7-.2-85.2-.2-10.3 29.2-25.4 59.9-34.2 90 1 .7 4 3.2.4 2.5-4-1.3-7.7-5.1-5.5-9.6q3.8-11 8.6-22.7c7.9-20 17.2-42.4 24-60.2-16.3-.4-33.4-2-48.8 4.5-14.9 5.3-26.5 27.7-11.4 38.9 13.7 8.9 32.5-6.4 29.3-21.6Z"/><path fill="#ff9a00" d="M340.2 207c-16-3.4-.4-23 1.7-33 7.5-19 16.9-41.7 23.9-59.8-16.2-.4-33-1.9-48.2 4.6-14 5.5-26.7 25.6-11.3 38.2 13 9.2 32.8-7.6 28.6-21.8a5.7 5.7 0 0 1 4.8 4.7c2.1 15-13.5 28.3-27.5 23-16.7-5.4-25.9-29.2-10.5-41.5 26.9-21.6 73.8-9.2 108.1-11.9l30.9.4c6.2 1 15.5-2.8 18 4.6-27 .3-57.3-.2-85.4-.2-10.5 29.5-25.2 59.4-34 89.4.9.6 3.4 3.1 1 3.2Zm7.7-94c6.4 0 12.7.4 19 .5-7.2 18.4-16.6 41.4-24.3 60.7A582 582 0 0 0 334 197c-2.2 4.2 2.2 9 6.6 9.1a7.3 7.3 0 0 0-2.2-2.1c8.8-30.4 23.8-60.6 34.4-90.5 27.9 0 58 .5 84.8.3-2.9-5.5-11.5-2.2-17-3.2-24-.5-53.6-.2-78.2-.8-26.1-1.2-69.6-.8-67.5 32.4a27.5 27.5 0 0 0 17.5 20c7.2 2.3 14.4.7 20.2-4.5 4.2-3.7 10.6-17.6 3.3-21.5 3.1 14.6-17 30.7-30 21.4-15.4-11-3.6-34.5 11.4-39.5 9.8-4.2 20.2-5 30.6-5Z"/><path fill="#300" d="M363 185.2c-8.1 17.3 11 17.7 21 9.1 2.3-.6 6.2-9 7.9-6.7-8.4 18.8-45.9 23-34.7-5.2 4.3-10.3 14.3-26.3 27.5-21 9.7 3.4 4.5 19.4-3 21.4-5.5 1-13.4 1.4-18.7 2.3Zm21.6-20.3c-9.2.2-15 9.4-19.7 16.1 7-1.1 14 1 18.7-3.9 2.1-3.1 3.7-9.7 1-12.3Z"/><path fill="#ff9a00" d="M367.4 203c-26.7 1.7-5-50 17.4-42 3.7 1.3 5.7 4.6 5.6 9-.6 16-16.2 13.6-27.1 15.5-7.8 16 10.4 17.3 20.5 8.5 2.5-.4 5.8-9.6 8.5-6.4-4 9.5-15.7 15.4-24.9 15.4Zm12.1-42.3c-12.2 0-20.3 17.9-22 21.9-11 27 25.8 23.4 34 5.1-2.2-.4-5.2 6.6-7.3 7-10.7 8.5-29.7 8.8-21.5-9.9 5.5-1 13.4-1.4 19-2.4 9.2-2.8 12.2-22.4-2.2-21.7Zm-15.4 20.9c5-7.2 10.8-16.9 20.6-17.1 3 2.6 1.5 9.5-.8 12.8-5.2 5.5-13.1 2.8-19.8 4.3Zm20.3-16.4c-8.6.4-14.2 8.8-18.7 15.3 6-.8 13.2 1 17.6-3.6 2-3 3.5-9.2 1.1-11.7Z"/><path fill="#300" d="M426.2 202.5c-7.4-6-1.5-18.4 1.2-25.4a104.7 104.7 0 0 0-19 24.1c-12.6-2 4.7-25.5 6.8-32.1-8.7 9.1-15.4 15.2-21.1 25.1-2.9 3.5-3.2 13-9.4 5.8-1.5-2.2 1-3.7 2-6.6 4.6-10.3 11.2-22.2 14.6-32.8 1.2-.8 5 2.4 5.4 3.6-2.3 6.2-5.5 12.8-8.7 19.5 6.6-7.3 13.3-17 20.4-23.3 10 4.1-3.6 20-5 27.1 7-7.5 13.9-16.6 21.4-23.8 1.2 0 3.6 1.8 3.8 3a78.6 78.6 0 0 0-11 34c6.7-.6 11-7.9 14.8-13 6.5-3.3-10.2 19.7-16.2 14.8Z"/><path fill="#ff9a00" d="M428.2 203.5c-10.3-3-4.9-17.5-1.8-25a103 103 0 0 0-17.9 23.1c-12.9-3.4 2-21.9 5.6-30.9-7.5 7.9-14.4 14.5-19.7 23.7-2 2.2-2.7 8-5.5 8.6-2.4.5-7-4.3-4-7.1 5.3-11.3 12.3-24 16-35.5 2.2-1.2 5.6 2.4 6.2 3.8a193 193 0 0 1-7.6 17.2c6-7 12.3-15.7 18.9-21.5 10.3 4.9-1.9 18.6-4.2 26.2 6.8-7.4 13.2-15.8 20.4-22.8 1.4 0 4.2 1.8 4.4 3.5a79.7 79.7 0 0 0-11 33.5c6.3-.9 10.3-7.9 14.2-13 7.7-1.7-9.8 17.8-14 16.2Zm.2-28c-2.9 8-9.5 20.4-2 26.7 2.8 2.3 8.1-2.5 10.3-4.6 4.5-4.5 7.2-9.3 6.7-9.9-5 4.3-8.5 13.4-16.1 13.4a78 78 0 0 1 11-34.4c-.4-1-2.3-2.4-3.4-2.6-7.8 7.5-14.6 16.7-22 24.6.4-8 15.1-22.2 5.6-27.9-7.7 7-14.7 17.4-22 25 3.5-7 7.3-14.7 9.8-21.6-.6-1-3-3.4-4.7-3.3-3.8 11.4-10.7 24.2-16 35.4-2.8 2.7 1.4 6.1 3.1 6 2.5-.7 3.3-6.4 5-8.3 6-10.2 14.1-17.6 22.3-26.3-1.7 8.8-19.6 28.4-7.9 33.1a109.3 109.3 0 0 1 20.3-25.2Z"/><path fill="#300" d="M476.7 166c1.5 10.6-7 21.7-13 29.5 7.3 2.9 12.7-1.8 16.3-7.9 4.5-1.7-1.2 4.5-1.8 5.7-4 5.4-10 6.4-16.5 4.4-6 5.9-11.5 6.6-17.9.2-4.3 9.6-11 23-14.7 32.6-.8 1-5.9-2.6-5.6-4.1 9.2-19.8 20.4-43.3 29.8-66 5.6 1 6.7 4.6 3.4 9.7 5-5 16.2-15.8 20-4Zm-24 13c-2.5 4.7-4.7 10.1-6.9 14.7a32.1 32.1 0 0 1 10.9-.8c7-7.7 15.2-19 15.4-30-8 1.7-14 10.5-19.4 16Zm-6.2 19.7c2.4.8 5.6-1.8 7.4-3.3-1.8 0-9.6-.2-7.4 3.3Z"/><path fill="#ff9a00" d="M428.7 231c-10.4-2.5-1.9-10.7.1-16.8 7.8-16.8 16.7-35.9 24.3-54.2 4.8.6 7 3.6 5.1 8 5.4-5.4 15.7-12.8 18.9-2 1.5 10.6-7 21.8-12.8 29.3 7.3 2.6 12.4-2.9 15.4-8 5-1.8.5 3.8-1.1 6.1-4 5.2-9.7 6.9-16.8 4.8-6.4 6-11.9 6.1-17.8.3-5 9.8-10.4 24.3-15.3 32.6Zm24.8-70.2a1364 1364 0 0 1-29.6 65.7c-.3.7 3.3 4 5 3.8 3.5-9.5 10.3-23 14.8-33.1 5.9 6.3 11.5 6.5 17.9.1 9.4 3.5 16.4-2 19.7-9.6a2.5 2.5 0 0 0-1 .2c-3.3 5.6-9.3 11.3-17.3 7.8 5.9-7.6 14.8-18.9 13.4-29.5-4.4-12.6-17.2 2-22 6.7 3.2-4.2 6.7-11-.9-12Zm-6 38.4a3.5 3.5 0 0 1-1.3-.2c-2.3-4.4 5.1-4 8.8-4-2 1.6-4.7 4.2-7.6 4.2Zm-.8-.8c2 .5 4.5-1.3 6.2-2.7-2.1.2-7.4 0-6.2 2.7Zm-1.5-4.1c5-12.7 13.4-27.8 27.3-31.8 0 12.1-9.8 24.4-15.7 30.8a33.2 33.2 0 0 0-11.6 1ZM453 179c-2.3 4.5-4.4 9.5-6.5 14.1a31.4 31.4 0 0 1 10-.7c5.6-6 14.7-17.7 15.2-29-7.6 1.8-13.2 10-18.7 15.6Z"/><path fill="#300" d="M509.2 134.8c-3.4 10.3-47.9 97.8-10.3 52.8 6.8-3.7-14.3 27.8-20.1 9.3-1.4-8.8 5.6-19 8.6-28.2l16.6-39.1c-.1-3.2 6.8 3.2 5.2 5.2Z"/><path fill="#ff9a00" d="M484.7 203.2c-14.7-4.5-.6-24.8 2.3-34.6 5.4-12.6 11.4-27.6 17.3-40.2 1.8-.6 6.7 4.6 5.3 6.6-4.8 14-47.6 96.4-11 52.4.3-.2 1.2-.7 1.7-.2.5 5.2-9.3 15.6-15.6 16Zm20-74.1c-5.5 12.7-11.8 27.2-17 39.8-2.8 8.7-10 19.1-8.5 28 4 13.9 19-2.3 20.7-9.2-31.4 35-11.4-6.4 2.7-38.7 3.6-10.1 10.8-15.6 2-20Z"/><path fill="#300" d="M539.5 164.3c-4.3 11.1-14.2 24.4-13 36.5 6.2-1.7 10.6-7.1 14.6-13.2.7-.2 2.4-1.1 1.9 0-13.2 23.4-29.1 18.1-17.7-7.8-6.9 7.2-14 19-23.3 23-19.2-5 16.5-58.4 30.4-37.5.5-.9 2-3 2.1-5 1.8 0 5.6 2 5 4Zm-38 34.5c12.6-10.7 19.5-20.2 29.7-32.2-8.7-15-30.3 24.6-29.7 32.3Z"/><path fill="#ff9a00" d="M502 203.2c-19.9-4 15.1-59 30.3-38.5.8-1.2 1.9-3 1.9-4.7 16 .4-10.2 25-7.4 40.4 6-1.9 10.3-7.4 14-13 1.2-.7 3-1.3 2.5.4-13 22.8-29 19.5-19.2-6.2-6.6 7.4-13.4 17.8-22 21.6Zm21.1-42.3c-11.8-1.1-37.4 36.6-21.1 41.5 9.6-4.4 16.7-16.8 24.5-24.4-12.1 24.6 1.6 34.6 16.2 9.4a7.8 7.8 0 0 0-1.3.5c-4 6-8.6 11.8-15.3 13.4-3.5-15 21.6-39.7 8.8-40.6-.4 2.2-1.6 3.7-2.4 5.3-2.7-3.2-6-5.2-9.4-5.1Zm-21.9 38.7c-1.4-5.8 19-48.8 30.4-33-10 11.9-17.6 22.2-30.4 33Zm25-36c-10.4 1.1-23.4 26.7-24.3 34.4 12-10.4 19.2-20.1 28.8-31.4-1.2-2-2.7-3-4.4-3Z"/><path fill="#300" d="M564.3 151.1c-3.9 12.2-22.7 39.4-17 49.7 6.7-.7 11.6-7.8 15.4-13.2 4.7-1.8-2 5.5-2.6 6.9-4.5 7.4-14.9 12.4-19.8 3.5-3.8-10.6 13.4-34.9 16.9-46.9-4.3.1-6 .7-8.8-3.3h10.3l7.5-18c-.7-2.5 5.6 1.4 5.5 3 1.2 1.2-5.6 13.6-6 15h40.8c1.5.4 2.5 2 3.7 3.3Z"/><path fill="#ff9a00" d="M547.6 203.1c-21.8-4.4 5.9-38 9-51.6-3.7.3-6.4.1-9-4.1h10.8c2.4-5.4 4.8-11.2 7.4-17.7-.1-1.5 1-1.3 2.4-.7 8.1 3 1.4 10-1.9 18.4h40.3c2 .7 3 2.8 4.5 4.1h-46.5c-4.3 12.8-22.1 38.5-17.2 49 6.5-1 11.2-7.8 15-13.2 5.5-1.9-.5 5-2 7.3-3 5-8.2 8.5-12.8 8.5Zm10.1-52.3c-3.5 12.4-20.8 36.4-17 47 7 11.8 19.8-1.8 23.3-10a2 2 0 0 0-1 .1c-4 5.7-9 12.7-16 13.3-6.2-10.4 12.7-37.1 17-50.4h45.4c.6-5.1-42-1.7-44-2.6.5-2.9 7-13.5 6-15.3.5-.6-3.8-3.9-5-3.6a1.3 1.3 0 0 0 .2.4 542 542 0 0 1-7.7 18.5h-9.8c2.4 3.4 5 2.6 8.6 2.6Z"/><path fill="#300" d="M570.2 185.2c-8.2 17.3 11 17.7 21 9.1 2.2-.6 6.1-9 7.8-6.7-8.3 18.8-45.8 23-34.7-5.2 4.3-10.3 14.4-26.3 27.5-21 9.7 3.4 4.5 19.4-3 21.4-5.5 1-13.4 1.4-18.6 2.3Zm21.5-20.3c-9.2.2-15 9.4-19.7 16.1 7.1-1.1 14 1 18.7-3.9 2.2-3.1 3.7-9.7 1-12.3Z"/><path fill="#ff9a00" d="M574.6 203c-26.7 1.7-5.1-50 17.4-42 3.6 1.3 5.7 4.6 5.5 9-.6 16-16.2 13.6-27 15.5-7.9 16 10.3 17.3 20.4 8.5 2.5-.4 5.8-9.6 8.6-6.4-4.1 9.5-15.7 15.4-25 15.4Zm12-42.3c-12.1 0-20.3 17.9-22 21.9-11 27 25.9 23.4 34 5.1-2.2-.4-5.2 6.6-7.3 7-10.6 8.5-29.6 8.8-21.4-9.9 5.5-1 13.3-1.4 18.9-2.4 9.3-2.8 12.2-22.4-2.1-21.7Zm-15.4 20.9c5-7.2 10.8-16.9 20.6-17.1 3 2.6 1.5 9.5-.8 12.8-5.2 5.5-13 2.8-19.8 4.3Zm20.3-16.4c-8.5.4-14.1 8.8-18.7 15.3 6-.8 13.2 1 17.6-3.6 2.1-3 3.5-9.2 1.2-11.7Z"/><path fill="#300" d="M675.8 168.6c1.2 28.1-37.8 35.8-59.3 29.1-12.8 14.5-23.6-8.1-2.9-3 1.3-1.9 4.7-5.6 5.6-7.7-5.8.7-12 4-17.4 6.6-16.5-4.3 12.5-39.8 24-32.2 10 3.6 6.4 17.1.8 11.5 1.3-3 3-4.9 1-8.8-13.4.4-20.2 15.3-25 25.8 9.5-7 30-10.7 15.8 5.8 21 3.7 61.5-8.2 50.5-36-4.9-8.2-20.2-1.8-18 7.5 0 .8-1.8-.5-1.8-.5-5.5-3-2.6-10.6 2-13 10.1-5.5 23.4 4.3 24.7 14.9ZM605 200.5c2.8 0 5-2.2 6.9-3.9-2.5-.4-7.8.2-6.9 3.9Z"/><path fill="#ff9a00" d="M607.7 203c-9.3-1-8.7-12.6 5.8-8.8 1.4-2 4-4.8 5-6.7-5.5.9-11.3 4-16.7 6.5-17.7-4.1 12.9-41 24.2-33 10.7 3.9 6.3 18.6.2 12 1.2-3 3-4.9 1.1-8.5-12.5.6-19.2 14.4-23.7 24.3 10.8-7.4 28.4-8.2 15.5 6.7 20.9 3.2 60-8.2 49.5-35.7-5-7.7-19.3-1.6-17.4 7.3 0 1.5-1.8.3-2.3 0-5.7-3-2.8-11.2 2-13.7 10-5.8 24.3 4.7 25.3 15.1 1.3 28.7-39.1 36.2-59.6 29.7-3.2 3.5-6.3 4.8-8.9 4.8Zm.4-8.8c-13.6 1.4-.5 15 8.3 3.1 20 6.6 60.3-.4 59-28.7-.9-9.9-14.6-20.1-24.1-14.5-4.3 2.4-7.5 9.4-1.7 12.5a5.8 5.8 0 0 0 .8.4c-1.8-9.6 13.5-16 18.8-7.6 11.1 28.7-30.1 40.6-51.6 36.6 15-16-6-13.1-15.9-5 4.9-10.6 11.6-26.9 26.1-27.3 2.1 4 .6 6.2-.7 9.2 5 4.5 7.8-7.9-1.4-11.2-10.6-7.5-39.6 27.4-24 31.5 5.9-2.7 12-6 18.1-6.6-1 2.5-4.3 6-6 8.4a23.9 23.9 0 0 0-5.7-.8Zm-3 6.6h-.4c-1.3-4.5 5.2-5.1 8-4.4-2.2 1.8-4.4 4.4-7.5 4.4Zm5.4-4c-2.3.1-5.5.7-5.2 3.3 2.2 0 4-1.8 5.7-3.2h-.5Z"/><path fill="#300" d="M216.5 89.2H124V227h126.7V122.3h-33.9l-.3-33.1z"/><path fill="#ff9a00" d="M220.2 89.2h-3.7l.3 33.1h33.9v-2.4l-30.5-30.7zm-32.8 103.7H172l-3.2 10a.7.7 0 0 1-.8.5h-7.7c-.5 0-.6-.2-.5-.7l13.3-39.4.5-1.4a15.2 15.2 0 0 0 .2-2.8.4.4 0 0 1 .3-.4H185c.3 0 .5.1.5.3l15.1 43.8c.1.4 0 .6-.4.6h-8.7a.6.6 0 0 1-.6-.4Zm-13-8.7h10.5a61.6 61.6 0 0 0-2-6.7l-1.3-3.9c-.4-1.3-.8-2.5-1-3.8l-1-3.3a53 53 0 0 1-1.5 5.5l-1.9 6.3-1.8 6Zm35.3-18.1a5 5 0 0 1-3.6-1.5 5.6 5.6 0 0 1-1.5-3.9 5 5 0 0 1 1.5-3.8 5.2 5.2 0 0 1 3.7-1.5 4.9 4.9 0 0 1 3.8 1.5 6 6 0 0 1 0 7.7 4.8 4.8 0 0 1-3.9 1.5Zm-4.6 36.9v-32.7c0-.5.2-.6.5-.6h8.2c.4 0 .6.2.6.6V203c0 .4-.2.6-.6.6h-8c-.5 0-.7-.2-.7-.6Z"/></svg>