<svg xmlns="http://www.w3.org/2000/svg" viewBox="0 0 800 320"><g fill="#300" stroke="#ff9a00" stroke-miterlimit="10" stroke-width=".75"><path d="M335.38 135.68q-.12-.37.63 0a5.12 5.12 0 0 1 .87.5l1.06.69a1.67 1.67 0 0 1 .8 1.06 21.13 21.13 0 0 1-.3 10.77 20.63 20.63 0 0 1-5.55 9.28 18.78 18.78 0 0 1-8.97 5.1 19.07 19.07 0 0 1-10.33-.37 31.48 31.48 0 0 1-16.57-12.7 18.9 18.9 0 0 1-3-9.22 22.73 22.73 0 0 1 1.63-9.6 26.46 26.46 0 0 1 6.29-9.46 36.6 36.6 0 0 1 9.1-6.35 44.84 44.84 0 0 1 10.7-3.68 81.94 81.94 0 0 1 11.15-1.55c5.48-.33-.04-.54 6.78-.62s13.82-.13 21.05-.13 14.47.08 21.73.25 34.12.3 40.6.37 12.35.17 17.63.25 9.57.09 12.9 0a4.44 4.44 0 0 1 1.8.75 10.45 10.45 0 0 1 1.56 1.25 8.1 8.1 0 0 1 1 .93 5.8 5.8 0 0 1 .43.62c.13.21.06.31-.19.31q-3.73.13-8.03.13t-11.33-.06l-17.94-.13c-7.27-.04-36.53-.1-47.82-.19q-3.12 8.35-7.16 18.56t-8.54 21.37q-4.48 11.15-8.97 22.67t-8.6 22.6c-.24.75-.47 1.52-.68 2.31a9.48 9.48 0 0 0-.31 2.43l.62.5 1.06 1q.94.88.31 1.12a2.49 2.49 0 0 1-1.56 0 13.58 13.58 0 0 1-1.43-.62 20.57 20.57 0 0 1-2.43-1.62 6.18 6.18 0 0 1-1.93-2.37 4.51 4.51 0 0 1-.31-2.49 13.73 13.73 0 0 1 .56-2.49q3.86-10.96 8.6-22.8T351.5 151c3.68-9.21 6.48-16.12 8.4-20.86q3.93-9.66 6.42-16.26-9.71-.37-19.55-.5c-6.56-.08-1.54.08-8.27.5a74.44 74.44 0 0 0-10.77 1.3 47.12 47.12 0 0 0-10.28 3.25 38.71 38.71 0 0 0-8.97 5.6 26.94 26.94 0 0 0-6.73 8.53 23.77 23.77 0 0 0-2.67 9.1 17.16 17.16 0 0 0 1.68 9.21 14.82 14.82 0 0 0 5.35 6.42 15.75 15.75 0 0 0 7.98 2.55 18.16 18.16 0 0 0 8.84-1.74 22.37 22.37 0 0 0 11.83-13.33 17.84 17.84 0 0 0 .62-9.09Z"/><path d="M363 185.15a14.32 14.32 0 0 0-1.5 4.36 15.6 15.6 0 0 0-.18 4.11 10.25 10.25 0 0 0 .81 3.24 3.5 3.5 0 0 0 1.74 1.87 12.76 12.76 0 0 0 6.05 1.12 22.01 22.01 0 0 0 7.03-1.5 27 27 0 0 0 7.05-4.04 27.51 27.51 0 0 0 6.04-6.67 1.06 1.06 0 0 1 .94-.56.83.83 0 0 1 .93.56 32.51 32.51 0 0 1-6.17 7.72 30.6 30.6 0 0 1-7.47 5.11 24.54 24.54 0 0 1-7.97 2.3 18.07 18.07 0 0 1-7.54-.68 13.66 13.66 0 0 1-3.05-1.5 10.55 10.55 0 0 1-2.74-2.55 9.61 9.61 0 0 1-1.68-3.86 14.87 14.87 0 0 1 0-5.42 36.78 36.78 0 0 1 1.87-6.35 45.16 45.16 0 0 1 3.49-7.16 50.77 50.77 0 0 1 4.85-6.8 29.29 29.29 0 0 1 5.86-5.35 16.96 16.96 0 0 1 6.47-2.74 11.17 11.17 0 0 1 6.86 1 16.46 16.46 0 0 1 3.55 2.5 5.03 5.03 0 0 1 1.8 3.86 20.7 20.7 0 0 1-2.61 10.21q-2.5 4.24-5.73 4.86-2.37.37-5.55.75t-6.1.68q-2.93.31-4.92.56a9.59 9.59 0 0 0-2.12.37Zm21.56-20.3a12.24 12.24 0 0 0-6.05 1.56 24.95 24.95 0 0 0-5.29 3.98 41.8 41.8 0 0 0-4.55 5.23q-2.05 2.8-3.8 5.42 5.23-.25 8.29-.56t5.42-.56a6.5 6.5 0 0 0 4.98-2.8 13.67 13.67 0 0 0 2.12-5.1 13.16 13.16 0 0 0 .06-4.92q-.44-2.25-1.18-2.25Z"/><path d="M426.16 202.46a6.6 6.6 0 0 1-3.12-4.6 19.82 19.82 0 0 1-.06-6.86 40.9 40.9 0 0 1 1.87-7.47q1.3-3.74 2.56-6.48a142.76 142.76 0 0 0-10.1 10.96 87.64 87.64 0 0 0-8.96 13.2q-.25.38-1.06 0a6.3 6.3 0 0 1-1.62-1.12 10.24 10.24 0 0 1-1.5-1.74 3.22 3.22 0 0 1-.68-1.74 17.55 17.55 0 0 1 1.43-5.6q1.43-3.75 3.36-7.86t3.87-7.97l3.05-6.1q-6.23 6.35-10.1 10.59t-6.47 7.66a56.64 56.64 0 0 0-4.55 6.91q-1.93 3.5-4.42 8.47-.25.38-1.18 0a9.86 9.86 0 0 1-2-1.12 9.72 9.72 0 0 1-1.8-1.62q-.75-.87-.5-1.5.87-1.87 2.43-5.1t3.42-7.1q1.87-3.86 3.8-7.98t3.56-7.72q1.61-3.61 2.67-6.29a18.95 18.95 0 0 0 1.19-3.67c0-.33.3-.38.93-.13a8.56 8.56 0 0 1 1.93 1.12q1 .75 1.87 1.5t.75 1.12q-1.37 3.74-3.61 8.66T398 183.66l9.84-11.65q5.1-6.04 10.09-11.65c.08-.08.25-.08.5 0a4.71 4.71 0 0 1 .8.38 9.49 9.49 0 0 1 1.2.87 4.3 4.3 0 0 1 1.86 2.99 8.12 8.12 0 0 1-.5 3.36q-.87 2.12-1.93 4.61t-2.18 5.1q-1.12 2.62-2.24 5.11t-2 4.74q5.24-5.73 10.47-12.02a156.32 156.32 0 0 1 10.83-11.77q.13-.13.82.18a7.87 7.87 0 0 1 1.43.88 8.44 8.44 0 0 1 1.24 1.12c.33.37.46.64.38.8q-1.5 2.87-3.43 6.8a89.47 89.47 0 0 0-3.61 8.47 77.46 77.46 0 0 0-2.8 9.4 41.51 41.51 0 0 0-1.12 9.34 5.84 5.84 0 0 0 3.24-.81 19.23 19.23 0 0 0 3.73-2.74 35.54 35.54 0 0 0 3.93-4.24q1.93-2.42 3.8-5.3.62-.11 1.12-.24a1.34 1.34 0 0 1 .68-.06c.2.04.23.14.06.3a73.66 73.66 0 0 1-4.42 6.92 31.24 31.24 0 0 1-4.67 5.24 14.73 14.73 0 0 1-4.67 2.86 5.32 5.32 0 0 1-4.3-.19Z"/><path d="M476.73 166.1a14.64 14.64 0 0 1-.43 7.34 43.74 43.74 0 0 1-3.3 8.16 72.24 72.24 0 0 1-4.67 7.72q-2.56 3.68-4.67 6.17a14.27 14.27 0 0 0 5.42.8 9.47 9.47 0 0 0 4.17-1.3 14.62 14.62 0 0 0 3.48-2.99 39.97 39.97 0 0 0 3.24-4.36c.41-.08.79-.17 1.12-.25a1.34 1.34 0 0 1 .69-.06c.2.04.23.14.06.3a38.36 38.36 0 0 1-3.61 5.61 16.27 16.27 0 0 1-4.18 3.8 11.2 11.2 0 0 1-5.29 1.62 22.34 22.34 0 0 1-7.1-.93q-4.24 4.24-8.53 4.67t-9.28-4.55l-4.43 9.53q-2.56 5.53-4.85 10.6l-3.93 8.65q-1.63 3.6-1.5 3.86c.18.33-.06.4-.68.19a10.11 10.11 0 0 1-2.11-1.06 12.1 12.1 0 0 1-2.12-1.68c-.62-.63-.85-1.15-.69-1.56q5.48-11.58 13.14-28.34t16.63-37.18q.25-.38 0-.44c-.16-.04-.16-.06 0-.06a4.25 4.25 0 0 1 1.44.37 10.58 10.58 0 0 1 1.8.94 7.56 7.56 0 0 1 1.5 1.24 2.83 2.83 0 0 1 .74 1.44 5.18 5.18 0 0 1-.68 2.67q-.81 1.69-1.43 3.05a67.45 67.45 0 0 1 5.66-5.04 42.2 42.2 0 0 1 6.3-4.17 3.66 3.66 0 0 1 2.55-.31 7.49 7.49 0 0 1 2.49 1.12 7.85 7.85 0 0 1 3.05 4.42Zm-24.04 12.82q-2 3.87-3.67 7.73t-3.18 7.1a143.96 143.96 0 0 0 4.24-.81 14 14 0 0 1 2.49-.2q1.49 0 4.1.13a59.46 59.46 0 0 0 5.05-5.91 69.05 69.05 0 0 0 5.17-7.85 52.27 52.27 0 0 0 3.86-8.4 21.14 21.14 0 0 0 1.37-7.73 11.23 11.23 0 0 0-4.98 2 41.99 41.99 0 0 0-5.23 4.16q-2.62 2.43-4.98 5.11t-4.24 4.67Zm-6.23 19.8a1.75 1.75 0 0 0 1.5.13 10.4 10.4 0 0 0 2.12-.8 16.74 16.74 0 0 0 2.18-1.31 13.07 13.07 0 0 0 1.68-1.38h-1.93a13.31 13.31 0 0 0-3.12.38 6.94 6.94 0 0 0-2.49 1.06q-.94.69.06 1.93Z"/><path d="M509.24 134.83q-2 4.6-4.8 10.96t-5.85 13.33q-3.06 6.98-6.04 13.89t-5.17 12.58q-2.18 5.67-3.36 9.46t-.69 4.43a3.23 3.23 0 0 0 3.11.18 15.59 15.59 0 0 0 4.06-2.36 29.65 29.65 0 0 0 4.36-4.24 52.26 52.26 0 0 0 4.05-5.41l1.12-.25a1.34 1.34 0 0 1 .68-.07c.21.05.23.15.07.32a66.6 66.6 0 0 1-4.49 6.9 31.36 31.36 0 0 1-4.8 5.24 14.54 14.54 0 0 1-4.67 2.8 4.73 4.73 0 0 1-4.1-.37 8.9 8.9 0 0 1-3.93-5.3q-1.06-3.55 1.06-9.28 1.12-3.11 3.11-8.1t4.42-10.84q2.43-5.85 5.05-12.02t4.92-11.58q2.3-5.42 4.1-9.53t2.56-5.98c-.16-.67-.12-1 .13-1a3.35 3.35 0 0 1 1.62.62 11.05 11.05 0 0 1 1.93 1.56 7.12 7.12 0 0 1 1.43 2 2.56 2.56 0 0 1 .12 2.06Z"/><path d="M539.51 164.35q-1.12 2.37-2.74 5.66t-3.3 6.98q-1.68 3.68-3.3 7.47t-2.68 7.04a36.02 36.02 0 0 0-1.43 5.73 5.26 5.26 0 0 0 .37 3.61 17.3 17.3 0 0 0 7.35-4.23 44.33 44.33 0 0 0 7.35-8.97 6.5 6.5 0 0 1 1.25-.5 1.16 1.16 0 0 1 .62-.06c.16.04.16.23 0 .56q-1.87 2.99-4.17 6.04a39.89 39.89 0 0 1-4.74 5.3 19.54 19.54 0 0 1-4.8 3.36 4.76 4.76 0 0 1-4.36.12 5.95 5.95 0 0 1-3.23-4.05 16.04 16.04 0 0 1-.2-5.85 36.24 36.24 0 0 1 1.57-6.54q1.12-3.37 2.24-6.23-1 1.12-2.8 3.3t-4.11 4.8q-2.31 2.61-4.74 5.29t-4.73 4.86a51.26 51.26 0 0 1-4.11 3.55 4.44 4.44 0 0 1-2.8 1.24 6.42 6.42 0 0 1-3.24-1.68 8.75 8.75 0 0 1-2.24-2.8 6.64 6.64 0 0 1-.56-2.37 8.88 8.88 0 0 1 .18-2.37 30.97 30.97 0 0 1 1.81-6.04 55.99 55.99 0 0 1 3.74-7.66 81.37 81.37 0 0 1 5.23-7.9 44.55 44.55 0 0 1 6.16-6.8 21.68 21.68 0 0 1 6.73-4.17 9.98 9.98 0 0 1 6.85-.18 12.12 12.12 0 0 1 3.18 1.86 13.85 13.85 0 0 1 2.55 2.62 21.6 21.6 0 0 0 2-3.99 1.75 1.75 0 0 0 .12-.74v-.25a2.77 2.77 0 0 1 1.5.25 8.14 8.14 0 0 1 1.86 1 6.45 6.45 0 0 1 1.44 1.37 1.16 1.16 0 0 1 .18 1.37Zm-38 34.5q6.6-5.86 10.66-10.1t7.04-7.71q2.99-3.49 5.6-6.86t6.36-7.6a10.92 10.92 0 0 0-.69-1.37 4.17 4.17 0 0 0-1.43-1.37 5.5 5.5 0 0 0-5.55 0 20.83 20.83 0 0 0-6.1 4.86 60.49 60.49 0 0 0-5.91 7.79q-2.87 4.42-5.11 8.72a77.75 77.75 0 0 0-3.61 7.84 22.2 22.2 0 0 0-1.5 4.92Z"/><path d="M564.3 151.15q-2.24 4.85-4.55 9.96t-4.54 9.9q-2.25 4.8-4.18 9.03t-3.17 7.48a26.2 26.2 0 0 0-1.8 6.22 14.3 14.3 0 0 0-.07 3.99 5.25 5.25 0 0 0 .75 2.18 2.25 2.25 0 0 1 .5.93 6.15 6.15 0 0 0 3.36-.87 24.55 24.55 0 0 0 3.99-2.74 30.97 30.97 0 0 0 4.16-4.23 59.63 59.63 0 0 0 3.93-5.36c.41-.08.79-.16 1.12-.25a1.34 1.34 0 0 1 .68-.06c.21.05.23.15.06.31a61 61 0 0 1-4.48 6.85 34.3 34.3 0 0 1-4.73 5.17 15.72 15.72 0 0 1-4.67 2.93 5.61 5.61 0 0 1-4.18.12 10.36 10.36 0 0 1-6.22-4.73 8.05 8.05 0 0 1-.63-6.6q1.5-4.35 3.55-9.21t4.49-10.03q2.43-5.17 4.86-10.46t4.67-10.53h-5.11a1.82 1.82 0 0 1-1-.5 10.52 10.52 0 0 1-1.25-1.18l-1.5-1.69h10.34q2.12-4.85 3.99-9.4t3.49-8.65q-.5-.75 0-.75a5.13 5.13 0 0 1 2.17.56 8.11 8.11 0 0 1 2.06 1.37 5.32 5.32 0 0 1 1.3 1.87 2.39 2.39 0 0 1-.05 2.05l-5.86 12.96h40.7a1.85 1.85 0 0 1 1 .5 11.4 11.4 0 0 1 1.24 1.18l1.5 1.69Z"/><path d="M570.15 185.15a14.32 14.32 0 0 0-1.5 4.36 15.64 15.64 0 0 0-.19 4.11 10.25 10.25 0 0 0 .82 3.24 3.5 3.5 0 0 0 1.74 1.87 12.76 12.76 0 0 0 6.04 1.12 22 22 0 0 0 7.04-1.5 27 27 0 0 0 7.04-4.04 27.51 27.51 0 0 0 6.04-6.67 1.07 1.07 0 0 1 .93-.56.83.83 0 0 1 .94.56 32.47 32.47 0 0 1-6.17 7.72 30.6 30.6 0 0 1-7.47 5.11 24.54 24.54 0 0 1-7.98 2.3 18.06 18.06 0 0 1-7.53-.68 13.64 13.64 0 0 1-3.05-1.5 10.58 10.58 0 0 1-2.74-2.55 9.63 9.63 0 0 1-1.69-3.86 14.87 14.87 0 0 1 0-5.42 37.05 37.05 0 0 1 1.87-6.35 45.16 45.16 0 0 1 3.49-7.16 50.94 50.94 0 0 1 4.86-6.8 29.38 29.38 0 0 1 5.86-5.35 16.95 16.95 0 0 1 6.48-2.74 11.17 11.17 0 0 1 6.85 1 16.46 16.46 0 0 1 3.55 2.5 5.02 5.02 0 0 1 1.8 3.85 20.69 20.69 0 0 1-2.61 10.22q-2.5 4.23-5.73 4.86-2.37.37-5.54.74t-6.1.69q-2.93.3-4.92.56a9.55 9.55 0 0 0-2.13.37Zm21.55-20.3a12.24 12.24 0 0 0-6.04 1.56 24.95 24.95 0 0 0-5.3 3.98 41.8 41.8 0 0 0-4.54 5.23q-2.06 2.8-3.8 5.42 5.23-.25 8.28-.56t5.42-.56a6.5 6.5 0 0 0 4.98-2.8 13.63 13.63 0 0 0 2.12-5.1 13.16 13.16 0 0 0 .06-4.92c-.29-1.5-.68-2.25-1.18-2.25Z"/><path d="M675.78 168.58a18.82 18.82 0 0 1-1.68 11.21 25.94 25.94 0 0 1-6.54 8.6 43.3 43.3 0 0 1-10.71 6.67 58.61 58.61 0 0 1-12.21 3.8 65.42 65.42 0 0 1-14.2 1.18 51.52 51.52 0 0 1-13.95-2.3l-.25.25a25.1 25.1 0 0 1-7.6 4.86 3.72 3.72 0 0 1-2.68-.32 8.63 8.63 0 0 1-2.68-1.8 5.57 5.57 0 0 1-1.5-2.5 2.36 2.36 0 0 1 .87-2.48 6.9 6.9 0 0 1 2.87-1.56 10.58 10.58 0 0 1 3.18-.38 15.29 15.29 0 0 1 2.86.38q1.3.31 2.06.44 1-1.37 2.86-3.62a21.56 21.56 0 0 0 2.74-3.98 11.05 11.05 0 0 0-2.99.56q-1.87.56-4.23 1.43t-4.99 2.12l-5.23 2.49q-1.37.63-2.99-.87a5.47 5.47 0 0 1-1.87-3.24 12.96 12.96 0 0 1 .81-5.98 34.63 34.63 0 0 1 3.43-7.1 48.13 48.13 0 0 1 5.3-6.98 38.08 38.08 0 0 1 6.34-5.67 19.79 19.79 0 0 1 6.67-3.1 9.06 9.06 0 0 1 6.35.68 18.84 18.84 0 0 1 3.87 2.61 7.06 7.06 0 0 1 2.36 3.86 6.15 6.15 0 0 1-.25 3.87 5.62 5.62 0 0 1-2.49 2.86.88.88 0 0 1-.75-.12 6.28 6.28 0 0 1-1.06-.69 5.66 5.66 0 0 1-.87-.8c-.2-.26-.27-.42-.18-.5a5.78 5.78 0 0 0 1.99-4 8.95 8.95 0 0 0-.87-4.36 14.96 14.96 0 0 0-8.54 2.56 32.06 32.06 0 0 0-6.9 6.35 45.65 45.65 0 0 0-5.43 8.35q-2.3 4.55-4.05 8.53 4.12-2.37 7.1-3.74a44.19 44.19 0 0 1 6.6-2.37 7.51 7.51 0 0 1 2.37-.3 4.37 4.37 0 0 1 2.12.8 12.58 12.58 0 0 1 1.87 1.44 2.08 2.08 0 0 1 .62 2.05 9.98 9.98 0 0 1-1.62 3.74 30.18 30.18 0 0 1-3.36 4.23 65.58 65.58 0 0 0 22.42-.87 74.4 74.4 0 0 0 10.15-3.17 40.84 40.84 0 0 0 9.72-5.36 30.83 30.83 0 0 0 7.34-7.72 17.98 17.98 0 0 0 2.93-10.16 17.06 17.06 0 0 0-.37-4.54 15.3 15.3 0 0 0-1.62-4.3 7.92 7.92 0 0 0-2.18-2.43 7.2 7.2 0 0 0-3.18-1.06 12.4 12.4 0 0 0-9.34 2.5 9.96 9.96 0 0 0-2.86 3.67 8.1 8.1 0 0 0-.5 4.92c0 .33-.27.35-.81.06a5.94 5.94 0 0 1-.94-.56q-.62-.38-1.3-.87a2.49 2.49 0 0 1-.94-1.25 6.86 6.86 0 0 1-.06-6.16 11.08 11.08 0 0 1 4.3-4.68 11.31 11.31 0 0 1 5.42-1.62 15.56 15.56 0 0 1 5.8.88 22.55 22.55 0 0 1 8.9 5.98 17.25 17.25 0 0 1 4.55 9.58Zm-70.75 31.9a6.04 6.04 0 0 0 3.67-1.25 39.27 39.27 0 0 0 3.18-2.62 14.38 14.38 0 0 0-2.37-.06 6.84 6.84 0 0 0-2.49.56 4.4 4.4 0 0 0-1.74 1.3 2.18 2.18 0 0 0-.25 2.06Z"/></g><path fill="#300" d="M216.49 89.2H124v137.79h126.72V122.27l-33.93.03-.3-33.1z"/><path fill="#ff9a00" d="M220.16 89.2h-3.67l.3 33.1 33.93-.03v-2.41L220.16 89.2zm-32.78 103.65h-15.4l-3.15 9.98a.73.73 0 0 1-.78.6h-7.79c-.45 0-.58-.26-.45-.77l13.33-39.36c.12-.42.25-.9.41-1.4a15.17 15.17 0 0 0 .25-2.76.42.42 0 0 1 .33-.47h10.72c.34 0 .5.13.54.34l15.12 43.74c.12.47 0 .68-.42.68h-8.65a.62.62 0 0 1-.66-.47Zm-13-8.62h10.52c-.25-.89-.58-1.95-.95-3.05a128.3 128.3 0 0 1-1.12-3.66c-.42-1.31-.79-2.59-1.2-3.9s-.79-2.55-1.12-3.78c-.33-1.19-.62-2.3-.91-3.31h-.08a52.97 52.97 0 0 1-1.41 5.47c-.63 2.04-1.25 4.16-1.9 6.29a87.1 87.1 0 0 1-1.83 5.94Zm35.36-18.13a5.05 5.05 0 0 1-3.69-1.49 5.6 5.6 0 0 1-1.4-3.9 5.07 5.07 0 0 1 1.49-3.78 5.24 5.24 0 0 1 3.68-1.49 4.9 4.9 0 0 1 3.77 1.49 5.95 5.95 0 0 1-.08 7.68 4.8 4.8 0 0 1-3.77 1.49Zm-4.64 36.86v-32.7c0-.42.17-.6.54-.6h8.2c.37 0 .54.22.54.6v32.7c0 .47-.17.68-.54.68h-8.12c-.41 0-.62-.25-.62-.68Z"/></svg>