<svg xmlns="http://www.w3.org/2000/svg" viewBox="0 0 800 320"><path fill="#300" d="M329.7 133.5c9 2.2 2.7 19.7-2.7 24.2-23.7 21.1-58.4-18-33.7-39.4 22.4-19.7 59.5-11.9 87.5-13.1 18 .3 46.6.3 63.3.7 7.9.8 16.2-2.6 19 4.2-28.5.2-60.5-.3-92.5-.3-11.3 31.7-27.6 65-37.2 97.6 1.2.9 4.3 3.6.5 2.9-4.4-1.5-8.4-5.7-6-10.4q4.1-12 9.3-24.8c8.6-21.7 18.6-46 26.1-65.3-17.7-.4-36.3-2.2-53.1 5-16.1 5.6-28.8 30-12.3 42.1 14.8 9.7 35.2-7 31.8-23.4Z"/><path fill="#ff9a00" d="M335 210.8c-17.5-3.6-.6-25 1.8-35.8 8.1-20.6 18.3-45.2 26-64.8-17.6-.5-36-2-52.4 4.9-15.3 6-29 27.8-12.3 41.5 14 10 35.6-8.2 31-23.7a6.2 6.2 0 0 1 5.2 5.1c2.4 16.4-14.6 30.8-29.8 25-18.2-5.9-28.1-31.7-11.4-45 29.2-23.5 80.2-10 117.5-13l33.5.5c6.7 1 16.8-3 19.6 5-29.3.2-62.2-.3-92.8-.3-11.4 32-27.4 64.5-37 97 1 .7 3.8 3.5 1 3.6Zm8.3-102c6.9 0 13.7.4 20.6.6-7.7 20-18 44.9-26.3 65.9a528 528 0 0 0-9.4 24.7c-2.4 4.5 2.4 9.9 7.1 10a7.9 7.9 0 0 0-2.4-2.4c9.7-33 25.9-65.8 37.4-98.2 30.3 0 63.1.5 92.2.3-3.1-6-12.5-2.4-18.5-3.4-26.1-.6-58.3-.3-85-.9-28.3-1.3-75.5-1-73.3 35.1a30 30 0 0 0 19 21.7c7.8 2.6 15.6.9 22-4.8 4.5-4 11.5-19.2 3.5-23.4 3.5 15.8-18.4 33.4-32.5 23.3-16.8-12-4-37.5 12.4-43a84 84 0 0 1 33.2-5.4Z"/><path fill="#300" d="M359.7 187.2c-8.8 18.8 12 19.3 22.8 9.9 2.5-.6 6.7-9.8 8.6-7.2-9 20.4-49.8 24.8-37.8-5.7 4.7-11.2 15.7-28.5 30-22.9 10.5 3.8 4.8 21.1-3.3 23.3-6 1-14.6 1.5-20.3 2.6Zm23.4-22c-10 .2-16.2 10.2-21.4 17.5 7.7-1.2 15.2 1.1 20.3-4.3 2.4-3.3 4.1-10.5 1.1-13.3Z"/><path fill="#ff9a00" d="M364.5 206.5c-29 2-5.5-54.2 18.9-45.6 4 1.5 6.2 5 6 9.9-.6 17.3-17.6 14.6-29.4 16.7-8.5 17.4 11.3 18.8 22.2 9.3 2.8-.5 6.4-10.5 9.4-7-4.5 10.3-17 16.7-27 16.7Zm13.1-45.9c-13.2 0-22 19.4-23.9 23.7-12 29.5 28 25.5 37 5.6-2.4-.4-5.7 7.2-8 7.6-11.6 9.3-32.2 9.5-23.3-10.7 6-1.1 14.5-1.6 20.5-2.6 10.1-3 13.3-24.3-2.3-23.6Zm-16.8 22.7c5.6-7.9 11.8-18.3 22.5-18.6 3.3 3 1.6 10.3-1 14-5.6 5.9-14.2 3-21.4 4.6Zm22.2-17.8c-9.4.4-15.4 9.5-20.4 16.7 6.5-1 14.4 1 19.1-4 2.3-3.3 3.8-10 1.3-12.7Z"/><path fill="#300" d="M428.3 206c-8-6.4-1.6-20 1.4-27.6-8 7.8-15.1 16-20.7 26.2-13.6-2.3 5.2-27.7 7.4-34.9-9.4 10-16.7 16.6-23 27.3-3 3.8-3.4 14.1-10.1 6.3-1.6-2.4 1-4 2-7.2 5.2-11.1 12.4-24 16-35.6 1.4-1 5.4 2.6 6 4-2.6 6.6-6 13.8-9.6 21 7.2-7.8 14.5-18.4 22.2-25.2 10.9 4.5-4 21.7-5.4 29.4 7.7-8.2 15-18 23.2-25.8 1.3 0 4 1.9 4.2 3.2-5.8 11-11.9 24.2-12 37 7.3-.7 12-8.6 16-14.2 7-3.6-11 21.4-17.6 16Z"/><path fill="#ff9a00" d="M430.5 207.1c-11.1-3.3-5.3-19-2-27a111.8 111.8 0 0 0-19.3 25c-14-3.8 2.1-23.8 6-33.6-8.1 8.5-15.6 15.7-21.4 25.7-2 2.4-2.9 8.7-6 9.3-2.6.6-7.6-4.6-4.2-7.7 5.7-12.2 13.3-26.1 17.3-38.5 2.3-1.3 6.1 2.6 6.7 4.1a227 227 0 0 1-8.2 18.7c6.5-7.5 13.3-17 20.5-23.3 11.2 5.2-2 20-4.6 28.4 7.4-8 14.4-17.2 22.2-24.7 1.5 0 4.6 2 4.8 3.7a86.4 86.4 0 0 0-12 36.4c6.9-1 11.2-8.6 15.4-14.1 8.4-1.8-10.6 19.4-15.2 17.6Zm.2-30.3c-3 8.6-10.2 22-2.1 28.8 3 2.5 8.8-2.6 11.2-5 4.8-4.8 7.8-10 7.3-10.7-5.5 4.7-9.3 14.6-17.6 14.6 0-13 6.4-26.9 12-37.4-.4-1-2.5-2.6-3.7-2.8-8.4 8.2-15.8 18.2-24 26.7.5-8.7 16.5-24.1 6.2-30.3-8.3 7.6-16 18.9-23.9 27.2 3.8-7.7 7.9-16 10.7-23.4-.7-1.1-3.3-3.8-5.2-3.7-4 12.4-11.6 26.3-17.3 38.4-3 3 1.5 6.7 3.4 6.5 2.6-.7 3.5-6.9 5.5-9 6.3-11 15.2-19 24.1-28.5-1.8 9.6-21.3 30.9-8.5 36a118.7 118.7 0 0 1 22-27.4Z"/><path fill="#300" d="M483.3 166.5c1.6 11.4-7.7 23.4-14.2 31.9 8 3.1 13.8-2 17.7-8.5 4.9-2-1.3 4.8-1.9 6-4.4 6-10.8 7.1-18 5-6.5 6.2-12.4 7-19.4 0-4.6 10.5-12 25.2-16 35.5-.8 1.1-6.4-2.8-6-4.5 10-21.5 22.1-47 32.3-71.6 6.1 1 7.3 5 3.7 10.5 5.5-5.5 17.6-17 21.8-4.3Zm-26.1 13.9c-2.8 5.1-5.1 11-7.5 16a34.9 34.9 0 0 1 11.8-.9c7.6-8.2 16.5-20.6 16.8-32.4-8.7 1.8-15.2 11.3-21.1 17.3Zm-6.8 21.5c2.7.9 6.2-2 8.1-3.7-2 0-10.4-.1-8.1 3.7Z"/><path fill="#ff9a00" d="M431 237c-11.2-2.7-2-11.6.2-18.3 8.5-18.3 18.2-39 26.4-58.8 5.2.6 7.7 4 5.6 8.7 5.8-6 17-14 20.5-2.2 1.6 11.5-7.6 23.6-14 31.8 8 2.8 13.5-3.1 16.8-8.7 5.5-2 .6 4.1-1.2 6.6-4.3 5.7-10.6 7.5-18.3 5.2-6.9 6.5-12.9 6.7-19.3.4-5.5 10.6-11.3 26.4-16.7 35.3Zm27-76.2c-8 19.7-17.6 40.2-26 58.2l-6.1 13c-.4.8 3.6 4.4 5.3 4.2 4-10.4 11.3-25 16.2-36 6.4 6.9 12.5 7 19.4.2 10.2 3.7 17.8-2.2 21.4-10.5a2.7 2.7 0 0 0-1.1.3c-3.5 6-10 12.2-18.7 8.4 6.4-8.3 16-20.5 14.5-32-4.8-13.7-18.7 2.2-24 7.3 3.6-4.6 7.4-12-.8-13.1Zm-6.6 41.7a3.8 3.8 0 0 1-1.3-.3c-2.5-4.8 5.6-4.2 9.5-4.4-2 1.7-5 4.6-8.2 4.7Zm-.7-1c2 .6 4.8-1.4 6.7-2.8-2.3.1-8-.1-6.7 2.9Zm-1.7-4.4c5.5-13.8 14.6-30.2 29.7-34.5 0 13.1-10.7 26.5-17 33.4a36.1 36.1 0 0 0-12.7 1Zm8.5-16.5c-2.6 4.9-4.8 10.3-7 15.3a34.2 34.2 0 0 1 10.8-.8c6-6.5 16-19.1 16.5-31.5-8.2 2-14.3 11-20.3 17Z"/><path fill="#300" d="M518.6 132.5c-3.8 11.2-52 106.2-11.2 57.4 7.4-4-15.5 30.1-21.9 10-1.5-9.6 6-20.6 9.3-30.6l18.1-42.5c-.1-3.5 7.4 3.6 5.7 5.7Z"/><path fill="#ff9a00" d="M492 206.7c-16-4.9-.7-27 2.5-37.5 5.8-13.7 12.3-30 18.7-43.7 2-.6 7.3 5 5.8 7.2-5.3 15.3-51.8 104.6-12 56.9.4-.2 1.3-.8 2-.3.5 5.8-10.2 17-17 17.4Zm21.6-80.4c-5.9 13.8-12.8 29.6-18.4 43.2-3 9.5-10.8 20.8-9.3 30.4 4.5 15 20.8-2.4 22.5-10-34 38-12.4-7 3-42 4-11 11.7-17 2.2-21.6Z"/><path fill="#300" d="M551.5 164.6c-4.7 12-15.5 26.4-14.2 39.6 6.8-1.9 11.6-7.8 16-14.3.7-.3 2.5-1.3 2 0-14.4 25.3-31.6 19.6-19.2-8.6-7.5 7.8-15.3 20.6-25.3 25-21-5.5 17.9-63.4 33-40.6.5-1 2.2-3.4 2.3-5.4 1.8-.1 6 2 5.4 4.3ZM510.2 202c13.6-11.6 21.2-22 32.2-35-9.4-16.3-32.8 26.7-32.2 35Z"/><path fill="#ff9a00" d="M510.8 206.8c-21.6-4.4 16.4-64.2 33-41.8.7-1.3 2-3.3 1.9-5.1 17.3.4-11 27-8 43.8 6.5-2 11.2-8 15.3-14.2 1.2-.6 3.2-1.4 2.7.5-14.3 24.7-31.6 21.2-21-6.7-7.1 8-14.5 19.4-23.9 23.5Zm22.9-46c-12.9-1.2-40.7 39.8-23 45.1 10.4-4.7 18.2-18.2 26.7-26.5-13.2 26.7 1.7 37.6 17.5 10.2a8.3 8.3 0 0 0-1.4.6c-4.3 6.5-9.3 12.7-16.6 14.5-3.8-16.3 23.5-43.1 9.6-44-.4 2.3-1.7 4-2.6 5.7-3-3.6-6.6-5.6-10.2-5.6Zm-23.8 42c-1.6-6.2 20.5-52.9 33-35.7-10.9 12.8-19.1 24-33 35.8Zm27.2-39c-11.4 1.2-25.5 29-26.5 37.3 13.1-11.3 21-21.8 31.3-34.1-1.3-2.2-2.9-3.2-4.8-3.2Z"/><path fill="#300" d="M578.4 150.2c-4.2 13.2-24.7 42.7-18.5 54 7.3-.8 12.6-8.5 16.8-14.3 5-2-2.2 6-2.9 7.4-4.8 8-16 13.4-21.5 3.8-4.1-11.6 14.6-37.8 18.4-50.9-4.7.1-6.6.7-9.6-3.6h11.2a588 588 0 0 0 8.2-19.6c-.8-2.7 6 1.6 6 3.3 1.3 1.3-6.2 14.8-6.5 16.3h44.3c1.7.5 2.7 2.3 4 3.6Z"/><path fill="#ff9a00" d="M560.3 206.6c-23.7-4.7 6.4-41.3 9.9-56-4.2.4-7.1.2-9.9-4.4h11.8a589 589 0 0 0 8-19.2c-.2-1.7 1-1.5 2.5-.8 8.9 3.3 1.6 11-2 20h43.8c2.1.7 3.3 3 4.9 4.4h-50.6c-4.6 13.9-24 41.8-18.6 53.2 7-1 12.2-8.4 16.3-14.3 6-2-.5 5.4-2.2 8-3.3 5.4-9 9.1-13.9 9.1Zm11-56.8c-3.8 13.5-22.7 39.6-18.6 51.1 7.8 12.8 21.5-2 25.4-11a2.3 2.3 0 0 0-1.2.3c-4.3 6.1-9.6 13.7-17.2 14.4-6.8-11.3 13.8-40.3 18.4-54.8h49.3c.6-5.5-45.5-1.8-47.8-2.8.6-3 7.6-14.6 6.5-16.5.6-.7-4-4.3-5.3-4a1.4 1.4 0 0 0 0 .5c-2.8 7.3-5.5 13.9-8.2 20h-10.7c2.6 3.7 5.5 2.8 9.4 2.8Z"/><path fill="#300" d="M584.8 187.2c-8.8 18.8 11.9 19.3 22.8 9.9 2.5-.6 6.7-9.8 8.6-7.2-9 20.4-49.8 24.8-37.8-5.7 4.7-11.2 15.7-28.5 30-22.9 10.5 3.8 4.8 21.1-3.3 23.3-6 1-14.6 1.5-20.3 2.6Zm23.4-22c-10 .2-16.3 10.2-21.4 17.5 7.7-1.2 15.2 1.1 20.3-4.3 2.4-3.3 4-10.5 1.1-13.3Z"/><path fill="#ff9a00" d="M589.6 206.5c-29 2-5.6-54.2 18.9-45.6 4 1.5 6.2 5 6 9.9-.6 17.3-17.6 14.6-29.4 16.7-8.5 17.4 11.3 18.8 22.2 9.3 2.7-.5 6.4-10.5 9.4-7-4.5 10.3-17.1 16.7-27 16.7Zm13.1-45.9c-13.2 0-22 19.4-23.9 23.7-12 29.5 28 25.5 37 5.6-2.4-.4-5.7 7.2-8 7.6-11.6 9.3-32.2 9.5-23.3-10.7 6-1.1 14.5-1.6 20.5-2.6 10.1-3 13.3-24.3-2.3-23.6ZM586 183.3c5.5-7.9 11.8-18.3 22.5-18.6 3.3 3 1.6 10.3-1 14-5.6 5.9-14.2 3-21.5 4.6Zm22.1-17.8c-9.3.4-15.4 9.5-20.3 16.7 6.5-1 14.4 1 19.1-4 2.3-3.3 3.8-10 1.2-12.7Z"/><path fill="#300" d="M699.6 169.2c1.3 30.6-41.1 38.8-64.5 31.6-14 15.7-25.6-8.8-3-3.4 1.3-2 5-6 6-8.2-6.3.7-13 4.4-19 7.2-17.9-4.7 13.7-43.2 26.2-35 10.8 3.8 7 18.6.9 12.5 1.4-3.3 3.1-5.3 1-9.6-14.5.5-22 16.6-27 28 10.1-7.6 32.5-11.6 17 6.4 22.9 4 66.8-9 55-39.3-5.4-8.7-22-1.8-19.7 8.3.1.9-2-.6-2-.6-5.9-3.2-2.7-11.4 2.3-14 11-6 25.4 4.6 26.8 16Zm-77 34.6c3 0 5.4-2.4 7.5-4.2-2.7-.4-8.4.2-7.4 4.2Z"/><path fill="#ff9a00" d="M625.6 206.5c-10-1-9.4-13.6 6.2-9.5 1.6-2.1 4.4-5.2 5.6-7.3-6 1-12.4 4.4-18.2 7-19.3-4.4 14-44.5 26.3-35.7 11.6 4.2 6.8 20.1.2 13 1.3-3.2 3.2-5.3 1.2-9.3-13.6.7-21 15.7-25.8 26.4 11.7-8 31-8.9 16.8 7.3 22.7 3.5 65.3-9 53.8-38.8-5.3-8.3-21-1.7-18.8 8 0 1.6-2 .3-2.5-.1-6.2-3.3-3.1-12.1 2.2-14.8 10.8-6.4 26.4 5.1 27.4 16.4 1.5 31.2-42.5 39.2-64.7 32.2-3.5 3.8-7 5.2-9.7 5.2Zm.5-9.5c-14.9 1.5-.6 16.3 8.9 3.4 21.7 7.1 65.6-.5 64.2-31.2-1-10.7-16-21.8-26.2-15.8-4.8 2.7-8.1 10.2-1.9 13.6a6.3 6.3 0 0 0 1 .5c-2-10.5 14.5-17.4 20.4-8.3 12 31.1-32.8 44.1-56.1 39.7 16.2-17.3-6.6-14.2-17.3-5.3 5.3-11.6 12.6-29.3 28.3-29.7 2.4 4.3.7 6.7-.8 10 5.5 4.9 8.6-8.6-1.5-12.2-11.5-8.2-43 29.7-26 34.2 6.3-2.9 13-6.6 19.7-7.2-1 2.8-4.7 6.5-6.6 9.2a26 26 0 0 0-6.1-.9Zm-3.3 7.2h-.4c-1.5-5 5.6-5.6 8.7-4.9-2.5 2-4.8 4.9-8.3 4.9Zm5.8-4.3c-2.4 0-6 .6-5.6 3.5 2.4-.1 4.4-2 6.1-3.5h-.5Z"/><path fill="#300" d="M200.5 83H100v149.6h137.7V118.9h-36.9l-.3-35.9z"/><path fill="#ff9a00" d="M204.5 83h-4l.3 35.9h36.9v-2.6L204.5 83zm-35.6 112.5H152c-.3.3-3.2 12.3-4.2 11.5-.4-.4-10 1-9-.8.5-2.5 16.3-45.8 15.2-47.3a.5.5 0 0 1 .4-.5c.3.3 12.5-.5 12.2.4l16.4 47.5c1.1 1.6-9.6.3-9.8.7-1 .7-4.1-11.2-4.4-11.5Zm-14.2-9.3h11.5c-2-6.2-4.1-13-5.8-19.3-1.5 6.3-3.8 13.2-5.7 19.3Zm38.5-19.7c-7.4.2-7.3-11.9 0-11.6 7.6-.4 7.3 12 0 11.6Zm-5 40V171c-.7-1.4 9-.3 9.4-.6.4 0 .6.2.6.6v35.5c0 .5-.2.7-.6.7-.5-.3-10 .8-9.5-.7Z"/></svg>