<svg xmlns="http://www.w3.org/2000/svg" viewBox="0 0 800 320"><path fill="#300" d="M335.38 135.68q-.12-.37.63 0a5.12 5.12 0 0 1 .87.5l1.06.69a1.67 1.67 0 0 1 .8 1.06 21.13 21.13 0 0 1-.3 10.77 20.63 20.63 0 0 1-5.55 9.28 18.78 18.78 0 0 1-8.97 5.1 19.07 19.07 0 0 1-10.33-.37 31.48 31.48 0 0 1-16.57-12.7 18.9 18.9 0 0 1-3-9.22 22.73 22.73 0 0 1 1.63-9.6 26.46 26.46 0 0 1 6.29-9.46 36.6 36.6 0 0 1 9.1-6.35 44.84 44.84 0 0 1 10.7-3.68 81.94 81.94 0 0 1 11.15-1.55c5.48-.33-.04-.54 6.78-.62s13.82-.13 21.05-.13 14.47.08 21.73.25 34.12.3 40.6.37 12.35.17 17.63.25 9.57.09 12.9 0a4.44 4.44 0 0 1 1.8.75 10.45 10.45 0 0 1 1.56 1.25 8.1 8.1 0 0 1 1 .93 5.8 5.8 0 0 1 .43.62c.13.21.06.31-.19.31q-3.73.13-8.03.13t-11.33-.06l-17.94-.13c-7.27-.04-36.53-.1-47.82-.19q-3.12 8.35-7.16 18.56t-8.54 21.37q-4.48 11.15-8.97 22.67t-8.6 22.6c-.24.75-.47 1.52-.68 2.31a9.48 9.48 0 0 0-.31 2.43l.62.5 1.06 1q.94.88.31 1.12a2.49 2.49 0 0 1-1.56 0 13.58 13.58 0 0 1-1.43-.62 20.57 20.57 0 0 1-2.43-1.62 6.18 6.18 0 0 1-1.93-2.37 4.51 4.51 0 0 1-.31-2.49 13.73 13.73 0 0 1 .56-2.49q3.86-10.96 8.6-22.8T351.5 151c3.68-9.21 6.48-16.12 8.4-20.86q3.93-9.66 6.42-16.26-9.71-.37-19.55-.5c-6.56-.08-1.54.08-8.27.5a74.44 74.44 0 0 0-10.77 1.3 47.12 47.12 0 0 0-10.28 3.25 38.71 38.71 0 0 0-8.97 5.6 26.94 26.94 0 0 0-6.73 8.53 23.77 23.77 0 0 0-2.67 9.1 17.16 17.16 0 0 0 1.68 9.21 14.82 14.82 0 0 0 5.35 6.42 15.75 15.75 0 0 0 7.98 2.55 18.16 18.16 0 0 0 8.84-1.74 22.37 22.37 0 0 0 11.83-13.33 17.84 17.84 0 0 0 .62-9.09Z"/><path fill="#ff9a00" d="M339.95 206.93a2.46 2.46 0 0 1-.85-.14 14.17 14.17 0 0 1-1.47-.64 20.85 20.85 0 0 1-2.49-1.66 6.56 6.56 0 0 1-2.04-2.51 4.9 4.9 0 0 1-.35-2.7 14.19 14.19 0 0 1 .58-2.56 588.66 588.66 0 0 1 8.6-22.81l9.22-23.05c3.68-9.2 6.48-16.12 8.4-20.86a726.3 726.3 0 0 0 6.23-15.76c-6.27-.24-12.67-.4-19.02-.48-3.54-.05-3.67-.02-4.1.08a26.3 26.3 0 0 1-4.14.42 74.23 74.23 0 0 0-10.73 1.3 46.97 46.97 0 0 0-10.2 3.2 38.53 38.53 0 0 0-8.87 5.56 26.68 26.68 0 0 0-6.64 8.41 23.51 23.51 0 0 0-2.64 8.96 16.88 16.88 0 0 0 1.65 9.02 14.53 14.53 0 0 0 5.22 6.27 15.46 15.46 0 0 0 7.8 2.49 17.86 17.86 0 0 0 8.65-1.71 22 22 0 0 0 11.64-13.1 17.55 17.55 0 0 0 .62-8.9.5.5 0 0 1 .12-.53c.27-.23.68-.07 1.03.11a4.26 4.26 0 0 1 .97.57l1 .63a2.03 2.03 0 0 1 .97 1.3 21.57 21.57 0 0 1-.31 10.96 21.08 21.08 0 0 1-5.64 9.45 19.24 19.24 0 0 1-9.14 5.2 19.54 19.54 0 0 1-10.54-.38 31.87 31.87 0 0 1-16.78-12.86 19.35 19.35 0 0 1-3.05-9.4 23.17 23.17 0 0 1 1.65-9.75 26.96 26.96 0 0 1 6.38-9.6 37.17 37.17 0 0 1 9.18-6.42 45.46 45.46 0 0 1 10.8-3.7 82.7 82.7 0 0 1 11.2-1.57 10.89 10.89 0 0 0 2.66-.3c.26-.2.37-.28 4.14-.32 13.76-.17 28.32-.2 42.8.12 4.66.11 17.39.2 27.62.27l12.97.1 17.63.25c5.24.08 9.57.08 12.87 0a4.77 4.77 0 0 1 2.03.81 10.79 10.79 0 0 1 1.61 1.3 7.89 7.89 0 0 1 1.03.96 6.12 6.12 0 0 1 .46.67.57.57 0 0 1 .06.6.58.58 0 0 1-.57.28c-2.44.08-5.15.12-8.03.12s-6.65-.01-11.34-.06-10.67-.08-17.93-.12l-15.67-.06c-11.07-.03-24.82-.08-31.9-.13a1012.4 1012.4 0 0 1-7.07 18.32q-4.05 10.22-8.53 21.37c-2.96 7.35-5.97 14.98-8.97 22.67-2.97 7.64-5.86 15.25-8.59 22.6a35.8 35.8 0 0 0-.67 2.26 9.13 9.13 0 0 0-.3 2.16l.48.38c.1.11.46.44 1.08 1.02.52.49.73.86.67 1.21a.7.7 0 0 1-.48.53 3.5 3.5 0 0 1-.97.15Zm4.41-93.94a759.6 759.6 0 0 1 21.97.52l.53.02-.19.49a723.59 723.59 0 0 1-6.42 16.26c-1.93 4.75-4.72 11.65-8.4 20.86l-9.22 23.05a581.97 581.97 0 0 0-8.6 22.78 13.47 13.47 0 0 0-.53 2.42 4.17 4.17 0 0 0 .28 2.28 5.83 5.83 0 0 0 1.81 2.22 20.22 20.22 0 0 0 2.39 1.6 13.17 13.17 0 0 0 1.38.6 2.1 2.1 0 0 0 1.3 0 3.3 3.3 0 0 0-.44-.5l-1.07-1-.74-.58v-.18a9.9 9.9 0 0 1 .33-2.53 36 36 0 0 1 .69-2.33c2.73-7.36 5.63-14.97 8.6-22.62 3-7.7 6.01-15.32 8.97-22.68q4.48-11.14 8.53-21.36c2.7-6.8 5.1-13.04 7.16-18.55l.1-.25h.26c6.99.06 20.94.1 32.15.13l15.67.06q10.9.06 17.93.13t11.34.06c2.76 0 5.36-.04 7.74-.12a5.26 5.26 0 0 0-.25-.33 7.36 7.36 0 0 0-.95-.88 10.2 10.2 0 0 0-1.52-1.22 4.08 4.08 0 0 0-1.65-.7c-3.25.1-7.6.1-12.85 0l-17.62-.24c-2.32-.03-7.26-.06-12.97-.1-10.23-.07-22.97-.16-27.63-.27-14.47-.33-29.02-.29-42.78-.12a33.64 33.64 0 0 0-3.68.15c-.23.17-.41.3-3.07.47a81.72 81.72 0 0 0-11.1 1.55 44.65 44.65 0 0 0-10.62 3.64 36.4 36.4 0 0 0-9 6.29 26.2 26.2 0 0 0-6.2 9.33 22.44 22.44 0 0 0-1.59 9.44 18.61 18.61 0 0 0 2.93 9.03 31.11 31.11 0 0 0 16.36 12.55 18.8 18.8 0 0 0 10.14.37 18.5 18.5 0 0 0 8.8-5.01 20.36 20.36 0 0 0 5.44-9.12 20.85 20.85 0 0 0 .3-10.58 1.3 1.3 0 0 0-.64-.83q-.69-.44-1.06-.7a4.25 4.25 0 0 0-.83-.47h-.02a18.29 18.29 0 0 1-.7 8.88 22.75 22.75 0 0 1-12.03 13.55 18.61 18.61 0 0 1-9.03 1.78 16.21 16.21 0 0 1-8.15-2.62 15.26 15.26 0 0 1-5.5-6.57 17.6 17.6 0 0 1-1.7-9.4 24.26 24.26 0 0 1 2.71-9.24 27.44 27.44 0 0 1 6.82-8.65 39.35 39.35 0 0 1 9.05-5.66 47.87 47.87 0 0 1 10.36-3.26 75.17 75.17 0 0 1 10.83-1.31 25.98 25.98 0 0 0 4.02-.4 7.18 7.18 0 0 1 1.86-.13Z"/><path fill="#300" d="M363 185.15a14.32 14.32 0 0 0-1.5 4.36 15.6 15.6 0 0 0-.18 4.11 10.25 10.25 0 0 0 .81 3.24 3.5 3.5 0 0 0 1.74 1.87 12.76 12.76 0 0 0 6.05 1.12 22.01 22.01 0 0 0 7.03-1.5 27 27 0 0 0 7.05-4.04 27.51 27.51 0 0 0 6.04-6.67 1.06 1.06 0 0 1 .94-.56.83.83 0 0 1 .93.56 32.51 32.51 0 0 1-6.17 7.72 30.6 30.6 0 0 1-7.47 5.11 24.54 24.54 0 0 1-7.97 2.3 18.07 18.07 0 0 1-7.54-.68 13.66 13.66 0 0 1-3.05-1.5 10.55 10.55 0 0 1-2.74-2.55 9.61 9.61 0 0 1-1.68-3.86 14.87 14.87 0 0 1 0-5.42 36.78 36.78 0 0 1 1.87-6.35 45.16 45.16 0 0 1 3.49-7.16 50.77 50.77 0 0 1 4.85-6.8 29.29 29.29 0 0 1 5.86-5.35 16.96 16.96 0 0 1 6.47-2.74 11.17 11.17 0 0 1 6.86 1 16.46 16.46 0 0 1 3.55 2.5 5.03 5.03 0 0 1 1.8 3.86 20.7 20.7 0 0 1-2.61 10.21q-2.5 4.24-5.73 4.86-2.37.37-5.55.75t-6.1.68q-2.93.31-4.92.56a9.59 9.59 0 0 0-2.12.37Zm21.56-20.3a12.24 12.24 0 0 0-6.05 1.56 24.95 24.95 0 0 0-5.29 3.98 41.8 41.8 0 0 0-4.55 5.23q-2.05 2.8-3.8 5.42 5.23-.25 8.29-.56t5.42-.56a6.5 6.5 0 0 0 4.98-2.8 13.67 13.67 0 0 0 2.12-5.1 13.16 13.16 0 0 0 .06-4.92q-.44-2.25-1.18-2.25Z"/><path fill="#ff9a00" d="M368.08 203.27a17.7 17.7 0 0 1-5.44-.82 14.03 14.03 0 0 1-3.14-1.54 10.98 10.98 0 0 1-2.83-2.64 10.03 10.03 0 0 1-1.75-4 15.29 15.29 0 0 1 0-5.57 37.37 37.37 0 0 1 1.89-6.42 45.74 45.74 0 0 1 3.51-7.22 51.33 51.33 0 0 1 4.9-6.84 29.82 29.82 0 0 1 5.93-5.43 17.39 17.39 0 0 1 6.61-2.8 11.59 11.59 0 0 1 7.08 1.03 16.87 16.87 0 0 1 3.64 2.55 5.41 5.41 0 0 1 1.94 4.14 21.16 21.16 0 0 1-2.67 10.4c-1.71 2.91-3.73 4.6-5.98 5.04-1.61.25-3.48.5-5.58.75q-3.17.37-6.1.69t-4.92.56a18.91 18.91 0 0 0-1.9.3 13.98 13.98 0 0 0-1.39 4.12 15.32 15.32 0 0 0-.18 4.01 9.95 9.95 0 0 0 .78 3.12 3.15 3.15 0 0 0 1.55 1.68 12.4 12.4 0 0 0 5.88 1.1 21.76 21.76 0 0 0 6.91-1.48 26.71 26.71 0 0 0 6.94-4 27.28 27.28 0 0 0 5.96-6.57 1.4 1.4 0 0 1 1.22-.72 1.2 1.2 0 0 1 1.31.79l.07.17-.1.16a33.05 33.05 0 0 1-6.23 7.81 31.15 31.15 0 0 1-7.56 5.17 25.06 25.06 0 0 1-8.1 2.34 21.04 21.04 0 0 1-2.25.12Zm11.62-42.7a9.94 9.94 0 0 0-1.8.17 16.68 16.68 0 0 0-6.34 2.68 29.13 29.13 0 0 0-5.78 5.29 50.57 50.57 0 0 0-4.82 6.74 45.08 45.08 0 0 0-3.46 7.1 36.63 36.63 0 0 0-1.85 6.28 14.55 14.55 0 0 0 0 5.27 9.28 9.28 0 0 0 1.61 3.72 10.2 10.2 0 0 0 2.65 2.46 13.23 13.23 0 0 0 2.96 1.46 17.73 17.73 0 0 0 7.38.66 24.26 24.26 0 0 0 7.85-2.27 30.3 30.3 0 0 0 7.39-5.04 32.16 32.16 0 0 0 5.99-7.46.46.46 0 0 0-.47-.17c-.43.04-.57.22-.64.35a28.05 28.05 0 0 1-6.14 6.8 27.5 27.5 0 0 1-7.14 4.1 22.47 22.47 0 0 1-7.16 1.51 13.22 13.22 0 0 1-6.21-1.16 3.87 3.87 0 0 1-1.93-2.05 10.7 10.7 0 0 1-.84-3.35 16.04 16.04 0 0 1 .19-4.21 14.78 14.78 0 0 1 1.53-4.48l.07-.09c.12-.11.21-.2 2.34-.48q1.99-.25 4.92-.56t6.1-.68c2.09-.25 3.95-.5 5.53-.75 2.03-.39 3.87-1.96 5.47-4.68a20.42 20.42 0 0 0 2.56-10.03 4.62 4.62 0 0 0-1.68-3.57 16.2 16.2 0 0 0-3.47-2.44 11.43 11.43 0 0 0-4.81-1.12Zm-15.55 20.88.41-.62c1.16-1.73 2.44-3.56 3.81-5.43a42.34 42.34 0 0 1 4.59-5.28 25.45 25.45 0 0 1 5.37-4.04 12.68 12.68 0 0 1 6.23-1.6c.94 0 1.33 1.45 1.55 2.54a13.6 13.6 0 0 1-.06 5.06 14.11 14.11 0 0 1-2.18 5.25 6.88 6.88 0 0 1-5.25 2.97l-5.42.56c-2.03.2-4.82.4-8.3.56Zm20.4-16.23a11.93 11.93 0 0 0-5.86 1.51 24.67 24.67 0 0 0-5.21 3.93 41.62 41.62 0 0 0-4.5 5.18 156.7 156.7 0 0 0-3.38 4.79c3.13-.16 5.65-.33 7.52-.53q3.05-.3 5.41-.55a6.09 6.09 0 0 0 4.71-2.64 13.38 13.38 0 0 0 2.06-4.97 12.89 12.89 0 0 0 .07-4.78c-.37-1.92-.8-1.94-.81-1.94Z"/><path fill="#300" d="M426.16 202.46a6.6 6.6 0 0 1-3.12-4.6 19.82 19.82 0 0 1-.06-6.86 40.9 40.9 0 0 1 1.87-7.47q1.3-3.74 2.56-6.48a142.76 142.76 0 0 0-10.1 10.96 87.64 87.64 0 0 0-8.96 13.2q-.25.38-1.06 0a6.3 6.3 0 0 1-1.62-1.12 10.24 10.24 0 0 1-1.5-1.74 3.22 3.22 0 0 1-.68-1.74 17.55 17.55 0 0 1 1.43-5.6q1.43-3.75 3.36-7.86t3.87-7.97l3.05-6.1q-6.23 6.35-10.1 10.59t-6.47 7.66a56.64 56.64 0 0 0-4.55 6.91q-1.93 3.5-4.42 8.47-.25.38-1.18 0a9.86 9.86 0 0 1-2-1.12 9.72 9.72 0 0 1-1.8-1.62q-.75-.87-.5-1.5.87-1.87 2.43-5.1t3.42-7.1q1.87-3.86 3.8-7.98t3.56-7.72q1.61-3.61 2.67-6.29a18.95 18.95 0 0 0 1.19-3.67c0-.33.3-.38.93-.13a8.56 8.56 0 0 1 1.93 1.12q1 .75 1.87 1.5t.75 1.12q-1.37 3.74-3.61 8.66T398 183.66l9.84-11.65q5.1-6.04 10.09-11.65c.08-.08.25-.08.5 0a4.71 4.71 0 0 1 .8.38 9.49 9.49 0 0 1 1.2.87 4.3 4.3 0 0 1 1.86 2.99 8.12 8.12 0 0 1-.5 3.36q-.87 2.12-1.93 4.61t-2.18 5.1q-1.12 2.62-2.24 5.11t-2 4.74q5.24-5.73 10.47-12.02a156.32 156.32 0 0 1 10.83-11.77q.13-.13.82.18a7.87 7.87 0 0 1 1.43.88 8.44 8.44 0 0 1 1.24 1.12c.33.37.46.64.38.8q-1.5 2.87-3.43 6.8a89.47 89.47 0 0 0-3.61 8.47 77.46 77.46 0 0 0-2.8 9.4 41.51 41.51 0 0 0-1.12 9.34 5.84 5.84 0 0 0 3.24-.81 19.23 19.23 0 0 0 3.73-2.74 35.54 35.54 0 0 0 3.93-4.24q1.93-2.42 3.8-5.3.62-.11 1.12-.24a1.34 1.34 0 0 1 .68-.06c.2.04.23.14.06.3a73.66 73.66 0 0 1-4.42 6.92 31.24 31.24 0 0 1-4.67 5.24 14.73 14.73 0 0 1-4.67 2.86 5.32 5.32 0 0 1-4.3-.19Z"/><path fill="#ff9a00" d="M428.46 203.39a5.45 5.45 0 0 1-2.47-.6h-.02a6.98 6.98 0 0 1-3.3-4.86 20.29 20.29 0 0 1-.06-6.98 41.48 41.48 0 0 1 1.89-7.54c.6-1.73 1.2-3.3 1.79-4.72-2.98 3-5.9 6.2-8.69 9.56a87.8 87.8 0 0 0-8.93 13.15c-.2.32-.63.58-1.54.16a6.73 6.73 0 0 1-1.72-1.19 10.66 10.66 0 0 1-1.55-1.8 3.58 3.58 0 0 1-.75-1.96 17.73 17.73 0 0 1 1.46-5.74c.95-2.49 2.09-5.14 3.38-7.87 1.3-2.77 2.6-5.45 3.86-7.98l1.98-3.96a380.13 380.13 0 0 0-8.4 8.86c-2.56 2.8-4.74 5.38-6.46 7.64a56.54 56.54 0 0 0-4.52 6.86 230.9 230.9 0 0 0-4.41 8.46c-.3.46-.85.5-1.66.18a10.36 10.36 0 0 1-2.07-1.16 10.17 10.17 0 0 1-1.87-1.68 1.84 1.84 0 0 1-.57-1.88c.6-1.27 1.4-2.97 2.44-5.13l.23-.47 3.2-6.63q1.87-3.86 3.8-7.97c1.3-2.76 2.49-5.36 3.55-7.72 1.1-2.46 1.97-4.5 2.67-6.27a18.77 18.77 0 0 0 1.16-3.58.6.6 0 0 1 .26-.5c.26-.18.63-.16 1.18.07a9.04 9.04 0 0 1 2.02 1.17c.66.5 1.3 1 1.89 1.5.5.43 1.04.99.86 1.53-.92 2.52-2.14 5.44-3.63 8.7a358.1 358.1 0 0 1-3.8 8.08l7.9-9.35c3.39-4 6.79-7.93 10.1-11.66a.86.86 0 0 1 .9-.1 5.07 5.07 0 0 1 .89.4 9.98 9.98 0 0 1 1.23.9 4.66 4.66 0 0 1 2 3.25 8.53 8.53 0 0 1-.52 3.52c-.58 1.43-1.23 2.97-1.93 4.63l-2.19 5.11a451.9 451.9 0 0 1-2.24 5.11q-.64 1.44-1.2 2.78c3.02-3.35 6.05-6.86 9.04-10.46a157.33 157.33 0 0 1 10.87-11.8c.25-.25.65-.14 1.22.12a8.39 8.39 0 0 1 1.5.91 8.8 8.8 0 0 1 1.3 1.17c.29.33.64.8.43 1.23-1 1.93-2.15 4.2-3.42 6.79a89.66 89.66 0 0 0-3.6 8.43 77.54 77.54 0 0 0-2.8 9.36 41.7 41.7 0 0 0-1.1 8.9 5.83 5.83 0 0 0 2.69-.78 18.9 18.9 0 0 0 3.66-2.69 35.67 35.67 0 0 0 3.88-4.19 68.5 68.5 0 0 0 3.78-5.26l.08-.14.16-.03q.6-.12 1.1-.24a1.65 1.65 0 0 1 .85-.07.54.54 0 0 1 .46.36.55.55 0 0 1-.17.55 74.24 74.24 0 0 1-4.42 6.9 31.67 31.67 0 0 1-4.73 5.3 15.1 15.1 0 0 1-4.79 2.94 6.4 6.4 0 0 1-2.13.38Zm-2.12-1.25a4.92 4.92 0 0 0 4 .16 14.41 14.41 0 0 0 4.54-2.8 31 31 0 0 0 4.62-5.17 72.9 72.9 0 0 0 4.25-6.62 1.26 1.26 0 0 0-.16.04c-.32.08-.65.16-1.01.23a69.44 69.44 0 0 1-3.73 5.19 36.35 36.35 0 0 1-3.97 4.28 19.66 19.66 0 0 1-3.81 2.8 6.24 6.24 0 0 1-3.45.85l-.34-.03v-.35a42.1 42.1 0 0 1 1.13-9.43 77.98 77.98 0 0 1 2.82-9.44 90.31 90.31 0 0 1 3.62-8.51 332.4 332.4 0 0 1 3.43-6.78c-.03.02-.07-.12-.32-.4a8.07 8.07 0 0 0-1.19-1.07 7.44 7.44 0 0 0-1.36-.83 2.87 2.87 0 0 0-.48-.18 156.53 156.53 0 0 0-10.73 11.66 343.68 343.68 0 0 1-10.47 12.03l-1.35 1.48.72-1.87a101.3 101.3 0 0 1 2-4.75q1.12-2.48 2.24-5.1t2.18-5.1q1.06-2.49 1.93-4.6a7.77 7.77 0 0 0 .47-3.2 3.96 3.96 0 0 0-1.72-2.73 9.24 9.24 0 0 0-1.14-.84 4.16 4.16 0 0 0-.74-.34.85.85 0 0 0-.16-.04c-3.28 3.7-6.66 7.59-10.02 11.57l-9.84 11.65-1.96 2.31 1.33-2.72c1.91-3.9 3.63-7.53 5.1-10.77s2.7-6.14 3.6-8.62a2.24 2.24 0 0 0-.63-.71c-.58-.5-1.2-1-1.85-1.48a8.3 8.3 0 0 0-1.85-1.08 1.82 1.82 0 0 0-.43-.13 19.5 19.5 0 0 1-1.2 3.72c-.7 1.78-1.58 3.84-2.69 6.3a511.4 511.4 0 0 1-3.55 7.74q-1.93 4.11-3.8 7.97l-3.2 6.63-.23.47-2.43 5.1c-.1.26.05.63.45 1.1a9.37 9.37 0 0 0 1.74 1.55 9.56 9.56 0 0 0 1.91 1.08c.54.21.72.16.73.14 1.64-3.28 3.13-6.13 4.4-8.44a57.22 57.22 0 0 1 4.58-6.96c1.74-2.28 3.93-4.87 6.5-7.69 2.6-2.84 6-6.4 10.1-10.6l1.67-1.7-4.12 8.24a336.2 336.2 0 0 0-3.85 7.96 118 118 0 0 0-3.36 7.82 17.33 17.33 0 0 0-1.4 5.48 2.89 2.89 0 0 0 .61 1.53 9.93 9.93 0 0 0 1.44 1.68 5.95 5.95 0 0 0 1.53 1.05c.38.19.56.17.59.14a88.47 88.47 0 0 1 8.99-13.24 144.26 144.26 0 0 1 10.12-10.99l1.43-1.4-.83 1.82a78 78 0 0 0-2.54 6.45 40.83 40.83 0 0 0-1.85 7.4 19.54 19.54 0 0 0 .05 6.72 6.18 6.18 0 0 0 2.94 4.36Zm8.68-38.15Z"/><path fill="#300" d="M476.73 166.1a14.64 14.64 0 0 1-.43 7.34 43.74 43.74 0 0 1-3.3 8.16 72.24 72.24 0 0 1-4.67 7.72q-2.56 3.68-4.67 6.17a14.27 14.27 0 0 0 5.42.8 9.47 9.47 0 0 0 4.17-1.3 14.62 14.62 0 0 0 3.48-2.99 39.97 39.97 0 0 0 3.24-4.36c.41-.08.79-.17 1.12-.25a1.34 1.34 0 0 1 .69-.06c.2.04.23.14.06.3a38.36 38.36 0 0 1-3.61 5.61 16.27 16.27 0 0 1-4.18 3.8 11.2 11.2 0 0 1-5.29 1.62 22.34 22.34 0 0 1-7.1-.93q-4.24 4.24-8.53 4.67t-9.28-4.55l-4.43 9.53q-2.56 5.53-4.85 10.6l-3.93 8.65q-1.63 3.6-1.5 3.86c.18.33-.06.4-.68.19a10.11 10.11 0 0 1-2.11-1.06 12.1 12.1 0 0 1-2.12-1.68c-.62-.63-.85-1.15-.69-1.56q5.48-11.58 13.14-28.34t16.63-37.18q.25-.38 0-.44c-.16-.04-.16-.06 0-.06a4.25 4.25 0 0 1 1.44.37 10.58 10.58 0 0 1 1.8.94 7.56 7.56 0 0 1 1.5 1.24 2.83 2.83 0 0 1 .74 1.44 5.18 5.18 0 0 1-.68 2.67q-.81 1.69-1.43 3.05a67.45 67.45 0 0 1 5.66-5.04 42.2 42.2 0 0 1 6.3-4.17 3.66 3.66 0 0 1 2.55-.31 7.49 7.49 0 0 1 2.49 1.12 7.85 7.85 0 0 1 3.05 4.42Zm-24.04 12.82q-2 3.87-3.67 7.73t-3.18 7.1a143.96 143.96 0 0 0 4.24-.81 14 14 0 0 1 2.49-.2q1.49 0 4.1.13a59.46 59.46 0 0 0 5.05-5.91 69.05 69.05 0 0 0 5.17-7.85 52.27 52.27 0 0 0 3.86-8.4 21.14 21.14 0 0 0 1.37-7.73 11.23 11.23 0 0 0-4.98 2 41.99 41.99 0 0 0-5.23 4.16q-2.62 2.43-4.98 5.11t-4.24 4.67Zm-6.23 19.8a1.75 1.75 0 0 0 1.5.13 10.4 10.4 0 0 0 2.12-.8 16.74 16.74 0 0 0 2.18-1.31 13.07 13.07 0 0 0 1.68-1.38h-1.93a13.31 13.31 0 0 0-3.12.38 6.94 6.94 0 0 0-2.49 1.06q-.94.69.06 1.93Z"/><path fill="#ff9a00" d="M429 231.17a2.23 2.23 0 0 1-.65-.13 10.54 10.54 0 0 1-2.2-1.1 12.63 12.63 0 0 1-2.19-1.74c-.73-.73-1-1.4-.77-1.96a2689.29 2689.29 0 0 0 29.77-65.53l.02-.02a.35.35 0 0 1-.17-.36c.02-.16.13-.34.5-.34a4.53 4.53 0 0 1 1.58.4 11.21 11.21 0 0 1 1.87.96 7.97 7.97 0 0 1 1.56 1.31 3.22 3.22 0 0 1 .85 1.63 5.46 5.46 0 0 1-.72 2.9l-.58 1.21a69.5 69.5 0 0 1 4.24-3.66 42.84 42.84 0 0 1 6.35-4.21 4.04 4.04 0 0 1 2.82-.35 7.9 7.9 0 0 1 2.61 1.18 8.23 8.23 0 0 1 3.2 4.64 15.06 15.06 0 0 1-.44 7.54 44.25 44.25 0 0 1-3.33 8.23 72.74 72.74 0 0 1-4.69 7.76 86.14 86.14 0 0 1-4.33 5.76 13.29 13.29 0 0 0 4.74.63 9.13 9.13 0 0 0 4-1.25 14.3 14.3 0 0 0 3.4-2.92 39.85 39.85 0 0 0 3.22-4.32l.08-.13.16-.03c.4-.08.77-.16 1.1-.25a1.66 1.66 0 0 1 .85-.06.54.54 0 0 1 .45.36.55.55 0 0 1-.16.54 38.91 38.91 0 0 1-3.62 5.61 16.72 16.72 0 0 1-4.27 3.9 11.62 11.62 0 0 1-5.47 1.67 22.5 22.5 0 0 1-7.01-.9c-2.83 2.78-5.72 4.34-8.6 4.63-2.88.3-5.96-1.15-9.2-4.28q-1.8 3.84-4.2 9.05-2.56 5.54-4.86 10.59t-3.93 8.65a24.62 24.62 0 0 0-1.46 3.62.54.54 0 0 1-.06.58.56.56 0 0 1-.45.2Zm24.77-70.37a1.32 1.32 0 0 1-.15.27 2603.15 2603.15 0 0 1-29.74 65.47c-.1.23.12.64.61 1.13a11.86 11.86 0 0 0 2.05 1.63 9.8 9.8 0 0 0 2.04 1.02l.2.06a19.28 19.28 0 0 1 1.52-3.9q1.62-3.62 3.93-8.66t4.85-10.6q2.56-5.54 4.43-9.52l.22-.49.38.38c3.22 3.22 6.25 4.71 8.98 4.44 2.76-.28 5.56-1.82 8.3-4.56l.16-.16.2.06a22.12 22.12 0 0 0 6.98.92 10.89 10.89 0 0 0 5.12-1.56 15.98 15.98 0 0 0 4.08-3.72 37.88 37.88 0 0 0 3.45-5.3 1.16 1.16 0 0 0-.17.04c-.32.08-.65.16-1.01.23a40.37 40.37 0 0 1-3.19 4.27 15.05 15.05 0 0 1-3.57 3.06 9.9 9.9 0 0 1-4.34 1.36 14.67 14.67 0 0 1-5.56-.82l-.54-.17.36-.43a81.88 81.88 0 0 0 4.66-6.14 72.24 72.24 0 0 0 4.64-7.68 43.6 43.6 0 0 0 3.27-8.1 14.33 14.33 0 0 0 .43-7.15 7.49 7.49 0 0 0-2.9-4.2 7.17 7.17 0 0 0-2.36-1.06 3.27 3.27 0 0 0-2.3.28 42.08 42.08 0 0 0-6.23 4.13 67.38 67.38 0 0 0-5.64 5.02l-1.46 1.46.86-1.88q.62-1.38 1.43-3.06a4.88 4.88 0 0 0 .66-2.47 2.44 2.44 0 0 0-.66-1.23 7.17 7.17 0 0 0-1.42-1.18 10.38 10.38 0 0 0-1.74-.9 6.1 6.1 0 0 0-.83-.29Zm-6.53 38.52a1.63 1.63 0 0 1-1-.3l-.07-.06a2.07 2.07 0 0 1-.59-1.54 1.37 1.37 0 0 1 .6-.93 7.32 7.32 0 0 1 2.63-1.12 13.73 13.73 0 0 1 3.2-.39h2.84l-.65.65a13.59 13.59 0 0 1-1.72 1.4 17.2 17.2 0 0 1-2.23 1.34 10.86 10.86 0 0 1-2.2.84 3.36 3.36 0 0 1-.8.12Zm-.52-.87a1.5 1.5 0 0 0 1.15.04 10.16 10.16 0 0 0 2.04-.79 16.25 16.25 0 0 0 2.13-1.28c.34-.24.64-.46.91-.68H452a13 13 0 0 0-3.02.36 6.58 6.58 0 0 0-2.36 1 .64.64 0 0 0-.3.42 1.4 1.4 0 0 0 .4.93Zm-1.52-4.21.3-.66c.97-2.1 2.04-4.48 3.17-7.09a130.7 130.7 0 0 1 3.68-7.74l.06-.09c1.24-1.31 2.66-2.88 4.23-4.66s3.26-3.5 5.01-5.14a42.41 42.41 0 0 1 5.28-4.2 11.67 11.67 0 0 1 5.15-2.06l.4-.04.02.4a21.6 21.6 0 0 1-1.4 7.86 52.92 52.92 0 0 1-3.88 8.47 69.66 69.66 0 0 1-5.2 7.89 60.5 60.5 0 0 1-5.08 5.95l-.12.12h-.17a91.63 91.63 0 0 0-4.09-.13 13.63 13.63 0 0 0-2.42.18l-1.93.37-2.3.44Zm7.8-15.1a123.63 123.63 0 0 0-3.64 7.66 411.9 411.9 0 0 1-2.88 6.45l1.59-.3q.93-.2 1.93-.38a14.22 14.22 0 0 1 2.56-.2c.96 0 2.3.04 3.96.12a60.33 60.33 0 0 0 4.9-5.76 68.92 68.92 0 0 0 5.14-7.8 52.08 52.08 0 0 0 3.84-8.36 21.33 21.33 0 0 0 1.36-7.17 11.39 11.39 0 0 0-4.41 1.88 41.73 41.73 0 0 0-5.19 4.14c-1.73 1.6-3.4 3.32-4.95 5.08s-2.98 3.33-4.21 4.64Z"/><path fill="#300" d="M509.24 134.83q-2 4.6-4.8 10.96t-5.85 13.33q-3.06 6.98-6.04 13.89t-5.17 12.58q-2.18 5.67-3.36 9.46t-.69 4.43a3.23 3.23 0 0 0 3.11.18 15.59 15.59 0 0 0 4.06-2.36 29.65 29.65 0 0 0 4.36-4.24 52.26 52.26 0 0 0 4.05-5.41l1.12-.25a1.34 1.34 0 0 1 .68-.07c.21.05.23.15.07.32a66.6 66.6 0 0 1-4.49 6.9 31.36 31.36 0 0 1-4.8 5.24 14.54 14.54 0 0 1-4.67 2.8 4.73 4.73 0 0 1-4.1-.37 8.9 8.9 0 0 1-3.93-5.3q-1.06-3.55 1.06-9.28 1.12-3.11 3.11-8.1t4.42-10.84q2.43-5.85 5.05-12.02t4.92-11.58q2.3-5.42 4.1-9.53t2.56-5.98c-.16-.67-.12-1 .13-1a3.35 3.35 0 0 1 1.62.62 11.05 11.05 0 0 1 1.93 1.56 7.12 7.12 0 0 1 1.43 2 2.56 2.56 0 0 1 .12 2.06Z"/><path fill="#ff9a00" d="M485.09 203.26a4.93 4.93 0 0 1-2.57-.72 9.3 9.3 0 0 1-4.1-5.51c-.72-2.44-.36-5.64 1.07-9.52a258 258 0 0 1 3.12-8.1c1.34-3.35 2.83-7 4.43-10.85q2.43-5.85 5.04-12.02t4.92-11.58c1.58-3.73 2.93-6.84 4.11-9.54s2-4.62 2.5-5.85c-.13-.57-.1-.9.07-1.13a.56.56 0 0 1 .45-.22 3.64 3.64 0 0 1 1.82.68 11.47 11.47 0 0 1 2 1.61 7.53 7.53 0 0 1 1.5 2.1 2.93 2.93 0 0 1 .14 2.35l-.01.02q-2 4.6-4.8 10.96t-5.85 13.33q-3.06 6.97-6.04 13.88c-2 4.63-3.74 8.85-5.17 12.57a159.57 159.57 0 0 0-3.35 9.45c-.99 3.14-.84 3.89-.77 4.04a2.9 2.9 0 0 0 2.7.1 15.35 15.35 0 0 0 3.97-2.31 29.36 29.36 0 0 0 4.3-4.18 51.87 51.87 0 0 0 4.02-5.38l.08-.13.16-.04q.61-.12 1.1-.24a1.69 1.69 0 0 1 .85-.07.53.53 0 0 1 .46.37.55.55 0 0 1-.17.54 66.95 66.95 0 0 1-4.48 6.9 31.87 31.87 0 0 1-4.86 5.3 14.92 14.92 0 0 1-4.8 2.88 5.83 5.83 0 0 1-1.84.31Zm19.2-74.27a2.63 2.63 0 0 0 .09.51l.03.12-.05.11c-.5 1.24-1.33 3.2-2.56 6a888.8 888.8 0 0 0-4.1 9.52l-4.93 11.58q-2.62 6.16-5.04 12.02c-1.6 3.85-3.08 7.5-4.42 10.84-1.32 3.28-2.36 6-3.11 8.08-1.38 3.73-1.73 6.77-1.05 9.04a8.57 8.57 0 0 0 3.76 5.09 4.33 4.33 0 0 0 3.8.33 14.22 14.22 0 0 0 4.55-2.73 31.19 31.19 0 0 0 4.73-5.17 66.22 66.22 0 0 0 4.32-6.62 1.2 1.2 0 0 0-.16.04c-.32.08-.65.16-1.01.23a52.77 52.77 0 0 1-4 5.32 30.17 30.17 0 0 1-4.4 4.3 16.1 16.1 0 0 1-4.16 2.42 3.6 3.6 0 0 1-3.46-.24l-.07-.07c-.31-.39-.48-1.25.62-4.77.78-2.52 1.92-5.71 3.37-9.49a332.9 332.9 0 0 1 5.17-12.6l6.05-13.88q3.05-6.98 5.85-13.33t4.8-10.95a2.19 2.19 0 0 0-.13-1.76 6.77 6.77 0 0 0-1.35-1.89 10.79 10.79 0 0 0-1.87-1.5 3.5 3.5 0 0 0-1.27-.55Z"/><path fill="#300" d="M539.51 164.35q-1.12 2.37-2.74 5.66t-3.3 6.98q-1.68 3.68-3.3 7.47t-2.68 7.04a36.02 36.02 0 0 0-1.43 5.73 5.26 5.26 0 0 0 .37 3.61 17.3 17.3 0 0 0 7.35-4.23 44.33 44.33 0 0 0 7.35-8.97 6.5 6.5 0 0 1 1.25-.5 1.16 1.16 0 0 1 .62-.06c.16.04.16.23 0 .56q-1.87 2.99-4.17 6.04a39.89 39.89 0 0 1-4.74 5.3 19.54 19.54 0 0 1-4.8 3.36 4.76 4.76 0 0 1-4.36.12 5.95 5.95 0 0 1-3.23-4.05 16.04 16.04 0 0 1-.2-5.85 36.24 36.24 0 0 1 1.57-6.54q1.12-3.37 2.24-6.23-1 1.12-2.8 3.3t-4.11 4.8q-2.31 2.61-4.74 5.29t-4.73 4.86a51.26 51.26 0 0 1-4.11 3.55 4.44 4.44 0 0 1-2.8 1.24 6.42 6.42 0 0 1-3.24-1.68 8.75 8.75 0 0 1-2.24-2.8 6.64 6.64 0 0 1-.56-2.37 8.88 8.88 0 0 1 .18-2.37 30.97 30.97 0 0 1 1.81-6.04 55.99 55.99 0 0 1 3.74-7.66 81.37 81.37 0 0 1 5.23-7.9 44.55 44.55 0 0 1 6.16-6.8 21.68 21.68 0 0 1 6.73-4.17 9.98 9.98 0 0 1 6.85-.18 12.12 12.12 0 0 1 3.18 1.86 13.85 13.85 0 0 1 2.55 2.62 21.6 21.6 0 0 0 2-3.99 1.75 1.75 0 0 0 .12-.74v-.25a2.77 2.77 0 0 1 1.5.25 8.14 8.14 0 0 1 1.86 1 6.45 6.45 0 0 1 1.44 1.37 1.16 1.16 0 0 1 .18 1.37Zm-38 34.5q6.6-5.86 10.66-10.1t7.04-7.71q2.99-3.49 5.6-6.86t6.36-7.6a10.92 10.92 0 0 0-.69-1.37 4.17 4.17 0 0 0-1.43-1.37 5.5 5.5 0 0 0-5.55 0 20.83 20.83 0 0 0-6.1 4.86 60.49 60.49 0 0 0-5.91 7.79q-2.87 4.42-5.11 8.72a77.75 77.75 0 0 0-3.61 7.84 22.2 22.2 0 0 0-1.5 4.92Z"/><path fill="#ff9a00" d="M526.9 203.3a4.68 4.68 0 0 1-2.13-.5 6.34 6.34 0 0 1-3.43-4.3 16.47 16.47 0 0 1-.2-6 36.72 36.72 0 0 1 1.58-6.6c.5-1.49 1-2.91 1.49-4.25l-1.4 1.68a214.7 214.7 0 0 1-4.12 4.8q-2.3 2.62-4.74 5.3a88.14 88.14 0 0 1-4.75 4.88 51.59 51.59 0 0 1-4.15 3.58c-1.3.98-2.3 1.41-3.07 1.32a6.82 6.82 0 0 1-3.44-1.78 9.18 9.18 0 0 1-2.34-2.92 7.06 7.06 0 0 1-.59-2.5 9.34 9.34 0 0 1 .2-2.47 31.43 31.43 0 0 1 1.82-6.1 56.7 56.7 0 0 1 3.76-7.71 81.98 81.98 0 0 1 5.26-7.95 45.28 45.28 0 0 1 6.21-6.85 22.17 22.17 0 0 1 6.84-4.23 10.38 10.38 0 0 1 7.1-.2 12.58 12.58 0 0 1 3.3 1.94 14.82 14.82 0 0 1 2.29 2.26 24.98 24.98 0 0 0 1.67-3.48 1.35 1.35 0 0 0 .1-.6v-.55l.28-.07a3.05 3.05 0 0 1 1.72.26 8.56 8.56 0 0 1 1.95 1.04 6.83 6.83 0 0 1 1.52 1.46 1.51 1.51 0 0 1 .22 1.77q-1.12 2.36-2.74 5.65a296.71 296.71 0 0 0-6.6 14.43 86.56 86.56 0 0 0-2.66 7.01 35.57 35.57 0 0 0-1.42 5.67 5.57 5.57 0 0 0 .18 3.13 17.33 17.33 0 0 0 6.92-4.08 44.18 44.18 0 0 0 7.28-8.9l.06-.09.1-.05a7.14 7.14 0 0 1 1.3-.52 1.44 1.44 0 0 1 .82-.06.52.52 0 0 1 .35.29.95.95 0 0 1-.1.8 83.81 83.81 0 0 1-4.22 6.1 40.53 40.53 0 0 1-4.77 5.34 20.05 20.05 0 0 1-4.9 3.43 5.98 5.98 0 0 1-2.55.63Zm-.47-25.32-.77 1.95c-.73 1.88-1.48 3.97-2.23 6.21a36.06 36.06 0 0 0-1.54 6.47 15.77 15.77 0 0 0 .18 5.72 5.55 5.55 0 0 0 3.04 3.8 4.37 4.37 0 0 0 4.03-.13 19.3 19.3 0 0 0 4.7-3.3 39.7 39.7 0 0 0 4.69-5.24c1.5-2 2.9-4.02 4.15-6a1.6 1.6 0 0 0-.19.04 6.19 6.19 0 0 0-1.1.43 44.85 44.85 0 0 1-7.36 8.96 17.74 17.74 0 0 1-7.5 4.32l-.26.06-.15-.21a5.54 5.54 0 0 1-.43-3.88 36.38 36.38 0 0 1 1.45-5.8c.7-2.15 1.6-4.53 2.69-7.06a314.28 314.28 0 0 1 6.6-14.47q1.62-3.3 2.74-5.66l.02-.03c.1-.18.2-.47-.16-.96a6.13 6.13 0 0 0-1.36-1.29 7.83 7.83 0 0 0-1.78-.95 3.69 3.69 0 0 0-.98-.25 1.96 1.96 0 0 1-.17.81 21.88 21.88 0 0 1-2.02 4.04l-.3.43-.3-.43a13.59 13.59 0 0 0-2.5-2.54 11.84 11.84 0 0 0-3.07-1.8 9.66 9.66 0 0 0-6.58.18 21.42 21.42 0 0 0-6.61 4.1 44.48 44.48 0 0 0-6.12 6.73 81.78 81.78 0 0 0-5.2 7.87 56 56 0 0 0-3.72 7.61 30.76 30.76 0 0 0-1.78 5.97 8.63 8.63 0 0 0-.18 2.29 6.32 6.32 0 0 0 .52 2.23 8.44 8.44 0 0 0 2.15 2.67 6.1 6.1 0 0 0 3.05 1.6c.37.04 1.13-.12 2.52-1.18a51.03 51.03 0 0 0 4.08-3.52 88.49 88.49 0 0 0 4.7-4.84q2.44-2.68 4.74-5.29c1.49-1.69 2.87-3.3 4.1-4.79 1.19-1.43 2.14-2.55 2.81-3.3Zm-25.1 21.55-.43-1.51v-.07a22.28 22.28 0 0 1 1.52-5.02 78.36 78.36 0 0 1 3.63-7.9c1.5-2.86 3.22-5.8 5.13-8.74a61.11 61.11 0 0 1 5.95-7.83 21.3 21.3 0 0 1 6.22-4.95 5.88 5.88 0 0 1 5.9.02 4.5 4.5 0 0 1 1.56 1.5 11.5 11.5 0 0 1 .71 1.42l.09.21-.15.18a163.9 163.9 0 0 0-6.34 7.58 181.21 181.21 0 0 1-12.67 14.6 185.45 185.45 0 0 1-10.67 10.11Zm.33-1.58.06.23c4.17-3.72 7.6-6.97 10.18-9.68a180.94 180.94 0 0 0 12.62-14.55c1.7-2.18 3.8-4.68 6.22-7.43a11.41 11.41 0 0 0-.58-1.11 3.84 3.84 0 0 0-1.3-1.24 5.1 5.1 0 0 0-5.18.02 20.58 20.58 0 0 0-6 4.77 60.51 60.51 0 0 0-5.88 7.74 106.2 106.2 0 0 0-5.09 8.69 78.25 78.25 0 0 0-3.6 7.8 23.09 23.09 0 0 0-1.46 4.76Z"/><path fill="#300" d="M564.3 151.15q-2.24 4.85-4.55 9.96t-4.54 9.9q-2.25 4.8-4.18 9.03t-3.17 7.48a26.2 26.2 0 0 0-1.8 6.22 14.3 14.3 0 0 0-.07 3.99 5.25 5.25 0 0 0 .75 2.18 2.25 2.25 0 0 1 .5.93 6.15 6.15 0 0 0 3.36-.87 24.55 24.55 0 0 0 3.99-2.74 30.97 30.97 0 0 0 4.16-4.23 59.63 59.63 0 0 0 3.93-5.36c.41-.08.79-.16 1.12-.25a1.34 1.34 0 0 1 .68-.06c.21.05.23.15.06.31a61 61 0 0 1-4.48 6.85 34.3 34.3 0 0 1-4.73 5.17 15.72 15.72 0 0 1-4.67 2.93 5.61 5.61 0 0 1-4.18.12 10.36 10.36 0 0 1-6.22-4.73 8.05 8.05 0 0 1-.63-6.6q1.5-4.35 3.55-9.21t4.49-10.03q2.43-5.17 4.86-10.46t4.67-10.53h-5.11a1.82 1.82 0 0 1-1-.5 10.52 10.52 0 0 1-1.25-1.18l-1.5-1.69h10.34q2.12-4.85 3.99-9.4t3.49-8.65q-.5-.75 0-.75a5.13 5.13 0 0 1 2.17.56 8.11 8.11 0 0 1 2.06 1.37 5.32 5.32 0 0 1 1.3 1.87 2.39 2.39 0 0 1-.05 2.05l-5.86 12.96h40.7a1.85 1.85 0 0 1 1 .5 11.4 11.4 0 0 1 1.24 1.18l1.5 1.69Z"/><path fill="#ff9a00" d="M548.3 203.43a5.24 5.24 0 0 1-1.96-.37 10.75 10.75 0 0 1-6.41-4.9 8.44 8.44 0 0 1-.65-6.9c1-2.91 2.2-6.02 3.56-9.24 1.34-3.18 2.85-6.56 4.49-10.04q2.42-5.17 4.86-10.46c1.52-3.32 3.01-6.68 4.44-10h-4.54a2.12 2.12 0 0 1-1.23-.58 11.27 11.27 0 0 1-1.3-1.22l-1.5-1.69-.53-.62h10.92a482.26 482.26 0 0 0 7.3-17.65.9.9 0 0 1-.15-.87.59.59 0 0 1 .57-.29 5.51 5.51 0 0 1 2.33.6 8.5 8.5 0 0 1 2.16 1.44 5.73 5.73 0 0 1 1.4 2 2.75 2.75 0 0 1-.08 2.36l-5.6 12.41h40.1a2.12 2.12 0 0 1 1.23.58 11.7 11.7 0 0 1 1.29 1.22c.42.46.92 1.02 1.5 1.69l.55.62h-46.51q-2.2 4.75-4.45 9.74c-1.61 3.58-3.1 6.82-4.55 9.91q-2.24 4.8-4.17 9.03c-1.3 2.84-2.36 5.34-3.16 7.45a25.97 25.97 0 0 0-1.79 6.14 14 14 0 0 0-.06 3.88 4.94 4.94 0 0 0 .68 2.02 4.4 4.4 0 0 1 .48.8 6.13 6.13 0 0 0 2.9-.84 24.39 24.39 0 0 0 3.93-2.7 30.9 30.9 0 0 0 4.12-4.18 59.72 59.72 0 0 0 3.9-5.33l.09-.13.15-.03c.4-.08.78-.16 1.1-.25a1.69 1.69 0 0 1 .85-.06.53.53 0 0 1 .46.36.55.55 0 0 1-.17.54 61.45 61.45 0 0 1-4.48 6.85 34.93 34.93 0 0 1-4.79 5.23 16.15 16.15 0 0 1-4.78 3 7.05 7.05 0 0 1-2.5.48Zm.88-55.27.94 1.05a10.39 10.39 0 0 0 1.2 1.14c.49.39.7.42.77.42h5.68l-.23.52c-1.5 3.5-3.07 7.04-4.67 10.54q-2.44 5.3-4.86 10.46a283.61 283.61 0 0 0-4.48 10.02c-1.36 3.2-2.55 6.3-3.55 9.19a7.71 7.71 0 0 0 .6 6.3 10.05 10.05 0 0 0 6.02 4.55 5.3 5.3 0 0 0 3.92-.11 15.43 15.43 0 0 0 4.56-2.86 34.18 34.18 0 0 0 4.68-5.12 61.01 61.01 0 0 0 4.31-6.56 1.45 1.45 0 0 0-.16.05l-1 .23a59.95 59.95 0 0 1-3.87 5.25 31.48 31.48 0 0 1-4.22 4.29 25.1 25.1 0 0 1-4.05 2.78 6.6 6.6 0 0 1-3.57.92l-.35-.03v-.35a2.46 2.46 0 0 0-.42-.71 5.54 5.54 0 0 1-.82-2.34 14.52 14.52 0 0 1 .06-4.1 26.63 26.63 0 0 1 1.84-6.32c.8-2.11 1.88-4.64 3.18-7.49q1.93-4.23 4.17-9.03a746.4 746.4 0 0 0 4.55-9.9q2.3-5.1 4.54-9.97l.1-.22h45.34l-.95-1.05a10.88 10.88 0 0 0-1.2-1.15c-.47-.37-.69-.41-.76-.41h-41.27l6.1-13.48a2.02 2.02 0 0 0 .05-1.76 4.97 4.97 0 0 0-1.22-1.74 7.77 7.77 0 0 0-1.96-1.3 5.03 5.03 0 0 0-1.8-.52l.1.16.11.16-.07.19a490.87 490.87 0 0 1-7.48 18.07l-.1.22Z"/><path fill="#300" d="M570.15 185.15a14.32 14.32 0 0 0-1.5 4.36 15.64 15.64 0 0 0-.19 4.11 10.25 10.25 0 0 0 .82 3.24 3.5 3.5 0 0 0 1.74 1.87 12.76 12.76 0 0 0 6.04 1.12 22 22 0 0 0 7.04-1.5 27 27 0 0 0 7.04-4.04 27.51 27.51 0 0 0 6.04-6.67 1.07 1.07 0 0 1 .93-.56.83.83 0 0 1 .94.56 32.47 32.47 0 0 1-6.17 7.72 30.6 30.6 0 0 1-7.47 5.11 24.54 24.54 0 0 1-7.98 2.3 18.06 18.06 0 0 1-7.53-.68 13.64 13.64 0 0 1-3.05-1.5 10.58 10.58 0 0 1-2.74-2.55 9.63 9.63 0 0 1-1.69-3.86 14.87 14.87 0 0 1 0-5.42 37.05 37.05 0 0 1 1.87-6.35 45.16 45.16 0 0 1 3.49-7.16 50.94 50.94 0 0 1 4.86-6.8 29.38 29.38 0 0 1 5.86-5.35 16.95 16.95 0 0 1 6.48-2.74 11.17 11.17 0 0 1 6.85 1 16.46 16.46 0 0 1 3.55 2.5 5.02 5.02 0 0 1 1.8 3.85 20.69 20.69 0 0 1-2.61 10.22q-2.5 4.23-5.73 4.86-2.37.37-5.54.74t-6.1.69q-2.93.3-4.92.56a9.55 9.55 0 0 0-2.13.37Zm21.55-20.3a12.24 12.24 0 0 0-6.04 1.56 24.95 24.95 0 0 0-5.3 3.98 41.8 41.8 0 0 0-4.54 5.23q-2.06 2.8-3.8 5.42 5.23-.25 8.28-.56t5.42-.56a6.5 6.5 0 0 0 4.98-2.8 13.63 13.63 0 0 0 2.12-5.1 13.16 13.16 0 0 0 .06-4.92c-.29-1.5-.68-2.25-1.18-2.25Z"/><path fill="#ff9a00" d="M575.23 203.27a17.71 17.71 0 0 1-5.44-.82 14.07 14.07 0 0 1-3.14-1.54 10.96 10.96 0 0 1-2.84-2.64 10.03 10.03 0 0 1-1.75-4 15.29 15.29 0 0 1 0-5.57 37.46 37.46 0 0 1 1.89-6.42 45.74 45.74 0 0 1 3.51-7.22 51.39 51.39 0 0 1 4.9-6.84 29.84 29.84 0 0 1 5.93-5.43 17.4 17.4 0 0 1 6.62-2.8 11.56 11.56 0 0 1 7.07 1.03 16.87 16.87 0 0 1 3.65 2.55 5.4 5.4 0 0 1 1.93 4.14 21.15 21.15 0 0 1-2.67 10.4c-1.7 2.91-3.72 4.6-5.98 5.04-1.6.25-3.48.5-5.57.75q-3.18.37-6.1.69t-4.92.56a18.4 18.4 0 0 0-1.9.3 14 14 0 0 0-1.4 4.12 15.36 15.36 0 0 0-.18 4.01 9.94 9.94 0 0 0 .78 3.12 3.15 3.15 0 0 0 1.55 1.68 12.4 12.4 0 0 0 5.88 1.1 21.77 21.77 0 0 0 6.92-1.48 26.76 26.76 0 0 0 6.94-4 27.26 27.26 0 0 0 5.96-6.57 1.41 1.41 0 0 1 1.2-.72 1.2 1.2 0 0 1 1.33.79l.07.17-.1.16a33.02 33.02 0 0 1-6.24 7.81 31.14 31.14 0 0 1-7.56 5.17 25.05 25.05 0 0 1-8.1 2.34 21.07 21.07 0 0 1-2.24.12Zm11.6-42.7a9.94 9.94 0 0 0-1.8.17 16.67 16.67 0 0 0-6.33 2.68 29.13 29.13 0 0 0-5.78 5.29 50.6 50.6 0 0 0-4.82 6.74 45.16 45.16 0 0 0-3.46 7.1 36.77 36.77 0 0 0-1.85 6.28 14.57 14.57 0 0 0 0 5.27 9.3 9.3 0 0 0 1.62 3.72 10.2 10.2 0 0 0 2.64 2.46 13.29 13.29 0 0 0 2.97 1.46 17.71 17.71 0 0 0 7.38.66 24.27 24.27 0 0 0 7.85-2.27 30.34 30.34 0 0 0 7.38-5.04 32.18 32.18 0 0 0 6-7.46.46.46 0 0 0-.48-.17.69.69 0 0 0-.63.35 28.09 28.09 0 0 1-6.15 6.8 27.5 27.5 0 0 1-7.14 4.1 22.48 22.48 0 0 1-7.15 1.51 13.19 13.19 0 0 1-6.22-1.16 3.86 3.86 0 0 1-1.92-2.05 10.67 10.67 0 0 1-.84-3.35 16.08 16.08 0 0 1 .18-4.21 14.76 14.76 0 0 1 1.54-4.48l.07-.09c.1-.11.2-.2 2.33-.48q2-.25 4.93-.56t6.1-.68c2.08-.25 3.94-.5 5.53-.75 2.02-.39 3.87-1.96 5.46-4.68a20.4 20.4 0 0 0 2.56-10.03 4.62 4.62 0 0 0-1.68-3.58 16.2 16.2 0 0 0-3.47-2.43 11.42 11.42 0 0 0-4.81-1.12Zm-15.54 20.88.42-.62c1.16-1.74 2.44-3.57 3.8-5.43a42.36 42.36 0 0 1 4.6-5.28 25.44 25.44 0 0 1 5.37-4.04 12.7 12.7 0 0 1 6.22-1.6c.93 0 1.32 1.36 1.55 2.54a13.61 13.61 0 0 1-.06 5.06 14.08 14.08 0 0 1-2.18 5.25 6.88 6.88 0 0 1-5.25 2.97l-5.42.56c-2.02.2-4.82.4-8.3.56Zm20.41-16.23a11.94 11.94 0 0 0-5.86 1.51 24.69 24.69 0 0 0-5.21 3.93 41.63 41.63 0 0 0-4.51 5.18c-1.2 1.64-2.33 3.24-3.38 4.79 3.13-.16 5.66-.33 7.52-.53l5.42-.55a6.08 6.08 0 0 0 4.71-2.64 13.32 13.32 0 0 0 2.06-4.97 12.89 12.89 0 0 0 .06-4.78c-.37-1.92-.8-1.94-.81-1.94Z"/><path fill="#300" d="M675.78 168.58a18.82 18.82 0 0 1-1.68 11.21 25.94 25.94 0 0 1-6.54 8.6 43.3 43.3 0 0 1-10.71 6.67 58.61 58.61 0 0 1-12.21 3.8 65.42 65.42 0 0 1-14.2 1.18 51.52 51.52 0 0 1-13.95-2.3l-.25.25a25.1 25.1 0 0 1-7.6 4.86 3.72 3.72 0 0 1-2.68-.32 8.63 8.63 0 0 1-2.68-1.8 5.57 5.57 0 0 1-1.5-2.5 2.36 2.36 0 0 1 .87-2.48 6.9 6.9 0 0 1 2.87-1.56 10.58 10.58 0 0 1 3.18-.38 15.29 15.29 0 0 1 2.86.38q1.3.31 2.06.44 1-1.37 2.86-3.62a21.56 21.56 0 0 0 2.74-3.98 11.05 11.05 0 0 0-2.99.56q-1.87.56-4.23 1.43t-4.99 2.12l-5.23 2.49q-1.37.63-2.99-.87a5.47 5.47 0 0 1-1.87-3.24 12.96 12.96 0 0 1 .81-5.98 34.63 34.63 0 0 1 3.43-7.1 48.13 48.13 0 0 1 5.3-6.98 38.08 38.08 0 0 1 6.34-5.67 19.79 19.79 0 0 1 6.67-3.1 9.06 9.06 0 0 1 6.35.68 18.84 18.84 0 0 1 3.87 2.61 7.06 7.06 0 0 1 2.36 3.86 6.15 6.15 0 0 1-.25 3.87 5.62 5.62 0 0 1-2.49 2.86.88.88 0 0 1-.75-.12 6.28 6.28 0 0 1-1.06-.69 5.66 5.66 0 0 1-.87-.8c-.2-.26-.27-.42-.18-.5a5.78 5.78 0 0 0 1.99-4 8.95 8.95 0 0 0-.87-4.36 14.96 14.96 0 0 0-8.54 2.56 32.06 32.06 0 0 0-6.9 6.35 45.65 45.65 0 0 0-5.43 8.35q-2.3 4.55-4.05 8.53 4.12-2.37 7.1-3.74a44.19 44.19 0 0 1 6.6-2.37 7.51 7.51 0 0 1 2.37-.3 4.37 4.37 0 0 1 2.12.8 12.58 12.58 0 0 1 1.87 1.44 2.08 2.08 0 0 1 .62 2.05 9.98 9.98 0 0 1-1.62 3.74 30.18 30.18 0 0 1-3.36 4.23 65.58 65.58 0 0 0 22.42-.87 74.4 74.4 0 0 0 10.15-3.17 40.84 40.84 0 0 0 9.72-5.36 30.83 30.83 0 0 0 7.34-7.72 17.98 17.98 0 0 0 2.93-10.16 17.06 17.06 0 0 0-.37-4.54 15.3 15.3 0 0 0-1.62-4.3 7.92 7.92 0 0 0-2.18-2.43 7.2 7.2 0 0 0-3.18-1.06 12.4 12.4 0 0 0-9.34 2.5 9.96 9.96 0 0 0-2.86 3.67 8.1 8.1 0 0 0-.5 4.92c0 .33-.27.35-.81.06a5.94 5.94 0 0 1-.94-.56q-.62-.38-1.3-.87a2.49 2.49 0 0 1-.94-1.25 6.86 6.86 0 0 1-.06-6.16 11.08 11.08 0 0 1 4.3-4.68 11.31 11.31 0 0 1 5.42-1.62 15.56 15.56 0 0 1 5.8.88 22.55 22.55 0 0 1 8.9 5.98 17.25 17.25 0 0 1 4.55 9.58Zm-70.75 31.9a6.04 6.04 0 0 0 3.67-1.25 39.27 39.27 0 0 0 3.18-2.62 14.38 14.38 0 0 0-2.37-.06 6.84 6.84 0 0 0-2.49.56 4.4 4.4 0 0 0-1.74 1.3 2.18 2.18 0 0 0-.25 2.06Z"/><path fill="#ff9a00" d="M607.8 203.34a4.96 4.96 0 0 1-1.99-.47 9.06 9.06 0 0 1-2.8-1.88 5.97 5.97 0 0 1-1.58-2.66 2.71 2.71 0 0 1 .98-2.87 7.33 7.33 0 0 1 3.02-1.64 11.06 11.06 0 0 1 3.29-.39 15.83 15.83 0 0 1 2.93.39c.76.18 1.35.3 1.8.39a78.5 78.5 0 0 1 2.74-3.45 23.75 23.75 0 0 0 2.38-3.32 13.72 13.72 0 0 0-2.23.5 62.03 62.03 0 0 0-9.16 3.53l-5.24 2.48c-1.06.49-2.2.18-3.4-.93a5.86 5.86 0 0 1-1.99-3.46 13.38 13.38 0 0 1 .83-6.15 35.2 35.2 0 0 1 3.46-7.18 48.67 48.67 0 0 1 5.34-7.03 38.63 38.63 0 0 1 6.41-5.73 20.25 20.25 0 0 1 6.8-3.17 9.45 9.45 0 0 1 6.6.72 19.34 19.34 0 0 1 3.94 2.66 7.46 7.46 0 0 1 2.49 4.07 6.55 6.55 0 0 1-.27 4.08 6.01 6.01 0 0 1-2.65 3.05 1.19 1.19 0 0 1-1.1-.11 6.69 6.69 0 0 1-1.12-.73 6.08 6.08 0 0 1-.93-.86c-.35-.43-.4-.76-.17-1a5.4 5.4 0 0 0 1.89-3.75 8.57 8.57 0 0 0-.74-3.96 14.62 14.62 0 0 0-8.08 2.49 31.86 31.86 0 0 0-6.83 6.28 45.42 45.42 0 0 0-5.38 8.27 172.72 172.72 0 0 0-3.58 7.48 84.06 84.06 0 0 1 6.14-3.19 44.73 44.73 0 0 1 6.66-2.39 7.7 7.7 0 0 1 2.49-.32 4.73 4.73 0 0 1 2.3.87 12.9 12.9 0 0 1 1.92 1.47 2.44 2.44 0 0 1 .73 2.4 10.36 10.36 0 0 1-1.67 3.87 29.73 29.73 0 0 1-2.9 3.75 65.5 65.5 0 0 0 21.57-.95 74.4 74.4 0 0 0 10.1-3.16 40.63 40.63 0 0 0 9.62-5.3 30.58 30.58 0 0 0 7.26-7.64 17.69 17.69 0 0 0 2.87-9.94 16.82 16.82 0 0 0-.37-4.47 15.08 15.08 0 0 0-1.58-4.19 7.57 7.57 0 0 0-2.06-2.3 6.88 6.88 0 0 0-3.02-1 12.02 12.02 0 0 0-9.06 2.41 9.63 9.63 0 0 0-2.76 3.54 7.77 7.77 0 0 0-.47 4.7.65.65 0 0 1-.27.63 1.15 1.15 0 0 1-1.08-.17 6.41 6.41 0 0 1-.98-.59 15.5 15.5 0 0 1-1.3-.87 2.86 2.86 0 0 1-1.07-1.43 7.21 7.21 0 0 1-.05-6.45 11.51 11.51 0 0 1 4.44-4.83 11.73 11.73 0 0 1 5.6-1.67 15.94 15.94 0 0 1 5.93.9 23.04 23.04 0 0 1 9.06 6.07 17.68 17.68 0 0 1 4.64 9.8 19.27 19.27 0 0 1-1.71 11.42 26.43 26.43 0 0 1-6.64 8.72 43.92 43.92 0 0 1-10.8 6.72 59.3 59.3 0 0 1-12.29 3.83 66.69 66.69 0 0 1-14.28 1.18 52.16 52.16 0 0 1-13.83-2.25l-.1.09a24.24 24.24 0 0 1-3.99 3.04 23.91 23.91 0 0 1-3.73 1.9 3.03 3.03 0 0 1-.99.15Zm.53-9.17a10.46 10.46 0 0 0-2.7.37 6.55 6.55 0 0 0-2.72 1.48 2 2 0 0 0-.76 2.11 5.25 5.25 0 0 0 1.4 2.32 8.3 8.3 0 0 0 2.56 1.73 3.38 3.38 0 0 0 2.41.3 24.77 24.77 0 0 0 7.46-4.77l.4-.4.22.06a51.36 51.36 0 0 0 13.85 2.3 65.6 65.6 0 0 0 14.11-1.18 58.48 58.48 0 0 0 12.13-3.78 43.11 43.11 0 0 0 10.62-6.6 25.68 25.68 0 0 0 6.45-8.48 18.53 18.53 0 0 0 1.65-11 16.94 16.94 0 0 0-4.45-9.38 22.27 22.27 0 0 0-8.76-5.88 15.27 15.27 0 0 0-5.65-.85 10.98 10.98 0 0 0-5.24 1.57 10.77 10.77 0 0 0-4.15 4.51 6.45 6.45 0 0 0 .06 5.84 2.17 2.17 0 0 0 .81 1.1c.44.32.87.61 1.29.86l.07.06a6.08 6.08 0 0 0 .84.5l.23.1a8.38 8.38 0 0 1 .56-4.91 10.39 10.39 0 0 1 2.98-3.83 12.76 12.76 0 0 1 9.63-2.56 7.58 7.58 0 0 1 3.33 1.12 8.33 8.33 0 0 1 2.3 2.54 15.75 15.75 0 0 1 1.66 4.41 17.4 17.4 0 0 1 .38 4.65 18.4 18.4 0 0 1-2.99 10.34 31.36 31.36 0 0 1-7.44 7.82 41.44 41.44 0 0 1-9.8 5.4 75.17 75.17 0 0 1-10.2 3.2 66.27 66.27 0 0 1-22.55.87l-.73-.1.5-.53a29.73 29.73 0 0 0 3.32-4.18 9.65 9.65 0 0 0 1.56-3.59 1.72 1.72 0 0 0-.5-1.72 12.18 12.18 0 0 0-1.82-1.4 4.02 4.02 0 0 0-1.94-.75 7.26 7.26 0 0 0-2.24.3 43.95 43.95 0 0 0-6.55 2.35c-1.97.9-4.35 2.16-7.07 3.72l-.98.57.45-1.04c1.16-2.66 2.53-5.53 4.06-8.56a46.2 46.2 0 0 1 5.46-8.4 32.57 32.57 0 0 1 7-6.44 15.39 15.39 0 0 1 8.74-2.61h.24l.1.21a9.35 9.35 0 0 1 .9 4.54 6.12 6.12 0 0 1-1.98 4.11l.09.12a5.17 5.17 0 0 0 .81.75 6.13 6.13 0 0 0 1 .65c.3.15.41.12.41.12a5.27 5.27 0 0 0 2.32-2.67 5.82 5.82 0 0 0 .23-3.63 6.72 6.72 0 0 0-2.25-3.67 18.56 18.56 0 0 0-3.78-2.56 8.74 8.74 0 0 0-6.1-.66 19.5 19.5 0 0 0-6.54 3.06 37.87 37.87 0 0 0-6.3 5.61 48.08 48.08 0 0 0-5.25 6.92 34.46 34.46 0 0 0-3.38 7.02 12.67 12.67 0 0 0-.8 5.8 5.13 5.13 0 0 0 1.75 3.02c.97.9 1.81 1.16 2.58.8l5.23-2.48a61.83 61.83 0 0 1 9.27-3.57 11.45 11.45 0 0 1 3.1-.58h.6l-.27.55a22.07 22.07 0 0 1-2.79 4.05 73.86 73.86 0 0 0-2.84 3.6l-.14.19-.23-.04a42.6 42.6 0 0 1-2.08-.44 15 15 0 0 0-2.8-.37h-.35Zm-3.3 6.68h-.28l-.08-.27a2.54 2.54 0 0 1 .31-2.4 4.8 4.8 0 0 1 1.9-1.41 7.28 7.28 0 0 1 2.62-.6 14.52 14.52 0 0 1 2.43.07l.8.1-.6.55a39.88 39.88 0 0 1-3.2 2.64 6.43 6.43 0 0 1-3.9 1.32Zm5.36-3.95c-.27 0-.56 0-.86.02a6.52 6.52 0 0 0-2.35.53 4.07 4.07 0 0 0-1.6 1.2 1.69 1.69 0 0 0-.26 1.44 5.72 5.72 0 0 0 3.16-1.16 38 38 0 0 0 2.5-2.02l-.6-.01Z"/><path fill="#300" d="M216.49 89.2H124v137.79h126.72V122.27l-33.93.03-.3-33.1z"/><path fill="#ff9a00" d="M220.16 89.2h-3.67l.3 33.1 33.93-.03v-2.41L220.16 89.2zm-32.78 103.65h-15.4l-3.15 9.98a.73.73 0 0 1-.78.6h-7.79c-.45 0-.58-.26-.45-.77l13.33-39.36c.12-.42.25-.9.41-1.4a15.17 15.17 0 0 0 .25-2.76.42.42 0 0 1 .33-.47h10.72c.34 0 .5.13.54.34l15.12 43.74c.12.47 0 .68-.42.68h-8.65a.62.62 0 0 1-.66-.47Zm-13-8.62h10.52c-.25-.89-.58-1.95-.95-3.05a128.3 128.3 0 0 1-1.12-3.66c-.42-1.31-.79-2.59-1.2-3.9s-.79-2.55-1.12-3.78c-.33-1.19-.62-2.3-.91-3.31h-.08a52.97 52.97 0 0 1-1.41 5.47c-.63 2.04-1.25 4.16-1.9 6.29a87.1 87.1 0 0 1-1.83 5.94Zm35.36-18.13a5.05 5.05 0 0 1-3.69-1.49 5.6 5.6 0 0 1-1.4-3.9 5.07 5.07 0 0 1 1.49-3.78 5.24 5.24 0 0 1 3.68-1.49 4.9 4.9 0 0 1 3.77 1.49 5.95 5.95 0 0 1-.08 7.68 4.8 4.8 0 0 1-3.77 1.49Zm-4.64 36.86v-32.7c0-.42.17-.6.54-.6h8.2c.37 0 .54.22.54.6v32.7c0 .47-.17.68-.54.68h-8.12c-.41 0-.62-.25-.62-.68Z"/></svg>