<svg xmlns="http://www.w3.org/2000/svg" viewBox="0 0 800 320"><g fill="#300" stroke="#ff9a00" stroke-miterlimit="10" stroke-width=".5"><path d="M335.05 149.17q-.13-.38.62 0a5 5 0 0 1 .87.5l1.06.68a1.66 1.66 0 0 1 .81 1.06 21.13 21.13 0 0 1-.31 10.79 20.64 20.64 0 0 1-5.55 9.29 18.8 18.8 0 0 1-8.98 5.11 19.08 19.08 0 0 1-10.34-.37 31.51 31.51 0 0 1-16.59-12.72 18.92 18.92 0 0 1-3-9.23 22.74 22.74 0 0 1 1.63-9.6 26.48 26.48 0 0 1 6.3-9.47 36.63 36.63 0 0 1 9.1-6.36 44.85 44.85 0 0 1 10.72-3.68 81.98 81.98 0 0 1 11.16-1.56c5.49-.33-.04-.54 6.78-.62s13.84-.13 21.07-.13 14.49.09 21.76.25 14.15.3 20.64.38l17.64.24c5.28.08 9.58.09 12.9 0a4.43 4.43 0 0 1 1.81.75 10.49 10.49 0 0 1 1.56 1.25 7.96 7.96 0 0 1 1 .93 5.53 5.53 0 0 1 .44.63c.13.2.06.31-.19.31q-3.74.13-8.04.12t-11.35-.06q-7.04-.06-17.95-.12t-27.87-.19q-3.12 8.36-7.17 18.58t-8.54 21.38q-4.49 11.16-8.98 22.7t-8.6 22.63c-.25.75-.48 1.51-.68 2.3a9.46 9.46 0 0 0-.31 2.44l.62.5 1.06 1c.62.59.73.95.31 1.12a2.48 2.48 0 0 1-1.56 0 13.5 13.5 0 0 1-1.43-.63 20.55 20.55 0 0 1-2.43-1.62 6.2 6.2 0 0 1-1.93-2.36 4.51 4.51 0 0 1-.32-2.5 13.76 13.76 0 0 1 .56-2.5q3.87-10.97 8.6-22.82t9.23-23.06q4.49-11.23 8.42-20.89t6.42-16.27q-9.73-.37-19.58-.5c-6.57-.08-1.54.08-8.27.5a74.46 74.46 0 0 0-10.79 1.31 47.2 47.2 0 0 0-10.28 3.24 38.73 38.73 0 0 0-8.98 5.61 26.96 26.96 0 0 0-6.73 8.54 23.8 23.8 0 0 0-2.69 9.1 17.2 17.2 0 0 0 1.69 9.23 14.84 14.84 0 0 0 5.36 6.42 15.76 15.76 0 0 0 7.98 2.56 18.18 18.18 0 0 0 8.85-1.75 22.4 22.4 0 0 0 11.85-13.34 17.85 17.85 0 0 0 .62-9.1Z"/><path d="M362.7 191.68a14.35 14.35 0 0 0-1.5 4.37 15.63 15.63 0 0 0-.19 4.11 10.27 10.27 0 0 0 .81 3.25 3.5 3.5 0 0 0 1.75 1.87 12.76 12.76 0 0 0 6.05 1.12 22.02 22.02 0 0 0 7.04-1.5 27.02 27.02 0 0 0 7.05-4.06 27.55 27.55 0 0 0 6.05-6.67 1.06 1.06 0 0 1 .93-.56.83.83 0 0 1 .94.56 32.56 32.56 0 0 1-6.18 7.73 30.61 30.61 0 0 1-7.48 5.12 24.53 24.53 0 0 1-7.98 2.3 18.08 18.08 0 0 1-7.54-.68 13.65 13.65 0 0 1-3.06-1.5 10.54 10.54 0 0 1-2.74-2.56 9.63 9.63 0 0 1-1.68-3.86 14.86 14.86 0 0 1 0-5.43 36.8 36.8 0 0 1 1.87-6.36 45.2 45.2 0 0 1 3.49-7.17 50.7 50.7 0 0 1 4.86-6.8 29.32 29.32 0 0 1 5.86-5.36 16.99 16.99 0 0 1 6.48-2.74 11.17 11.17 0 0 1 6.86 1 16.43 16.43 0 0 1 3.56 2.5 5.03 5.03 0 0 1 1.8 3.86 20.72 20.72 0 0 1-2.61 10.22q-2.5 4.24-5.74 4.87-2.37.37-5.55.75t-6.1.68q-2.94.31-4.93.56a9.63 9.63 0 0 0-2.12.38Zm21.57-20.32a12.26 12.26 0 0 0-6.05 1.56 24.94 24.94 0 0 0-5.3 3.99 41.89 41.89 0 0 0-4.55 5.24q-2.05 2.8-3.8 5.42 5.24-.25 8.3-.56t5.42-.56a6.5 6.5 0 0 0 4.99-2.8 13.65 13.65 0 0 0 2.12-5.12 13.17 13.17 0 0 0 .06-4.92c-.3-1.5-.7-2.25-1.2-2.25Z"/><path d="M425.91 209.01a6.6 6.6 0 0 1-3.12-4.6 19.8 19.8 0 0 1-.06-6.87 40.9 40.9 0 0 1 1.87-7.48q1.31-3.74 2.56-6.48a142.67 142.67 0 0 0-10.1 10.97 87.76 87.76 0 0 0-8.98 13.22q-.25.37-1.06 0a6.3 6.3 0 0 1-1.62-1.12 10.23 10.23 0 0 1-1.5-1.75 3.22 3.22 0 0 1-.69-1.74 17.56 17.56 0 0 1 1.44-5.62q1.43-3.74 3.36-7.85t3.87-7.98l3.05-6.11q-6.24 6.36-10.1 10.6t-6.48 7.67a56.5 56.5 0 0 0-4.55 6.92q-1.94 3.5-4.43 8.48-.25.37-1.18 0a9.9 9.9 0 0 1-2-1.13 9.78 9.78 0 0 1-1.8-1.62q-.76-.87-.5-1.5.86-1.87 2.42-5.1t3.43-7.12q1.87-3.86 3.8-7.98t3.55-7.73q1.62-3.61 2.69-6.3a18.86 18.86 0 0 0 1.18-3.67c0-.33.31-.38.94-.13a8.64 8.64 0 0 1 1.93 1.12q1 .75 1.87 1.5t.75 1.13q-1.38 3.74-3.62 8.66t-5.11 10.79l9.85-11.66q5.1-6.05 10.1-11.66.12-.12.5 0a4.65 4.65 0 0 1 .8.38 9.48 9.48 0 0 1 1.2.87 4.3 4.3 0 0 1 1.86 3 8.13 8.13 0 0 1-.5 3.36q-.87 2.12-1.93 4.61t-2.18 5.11q-1.12 2.62-2.25 5.12t-2 4.73q5.24-5.73 10.48-12.03a156.25 156.25 0 0 1 10.85-11.78q.12-.13.8.19a7.95 7.95 0 0 1 1.44.87 8.5 8.5 0 0 1 1.25 1.12c.33.37.45.64.37.8q-1.5 2.88-3.43 6.8a89.66 89.66 0 0 0-3.61 8.49 77.6 77.6 0 0 0-2.8 9.41 41.54 41.54 0 0 0-1.13 9.35 5.85 5.85 0 0 0 3.24-.8 19.25 19.25 0 0 0 3.74-2.75 35.54 35.54 0 0 0 3.93-4.24q1.93-2.43 3.8-5.3.62-.12 1.12-.25a1.33 1.33 0 0 1 .69-.06c.2.04.23.15.06.3a73.83 73.83 0 0 1-4.43 6.93 31.3 31.3 0 0 1-4.67 5.24 14.75 14.75 0 0 1-4.68 2.87 5.32 5.32 0 0 1-4.28-.2Z"/><path d="M476.53 172.6a14.63 14.63 0 0 1-.43 7.36 43.72 43.72 0 0 1-3.3 8.17 72.22 72.22 0 0 1-4.68 7.73q-2.55 3.68-4.67 6.17a14.26 14.26 0 0 0 5.42.81 9.48 9.48 0 0 0 4.18-1.3 14.6 14.6 0 0 0 3.49-3 39.94 39.94 0 0 0 3.24-4.36q.62-.12 1.12-.25a1.32 1.32 0 0 1 .69-.06c.2.04.23.14.06.3a38.4 38.4 0 0 1-3.62 5.62 16.31 16.31 0 0 1-4.17 3.8 11.2 11.2 0 0 1-5.3 1.62 22.33 22.33 0 0 1-7.11-.93q-4.24 4.24-8.54 4.67t-9.3-4.55l-4.42 9.54q-2.56 5.54-4.86 10.6l-3.93 8.66q-1.63 3.61-1.5 3.87c.17.33-.06.4-.68.19a10.1 10.1 0 0 1-2.12-1.06 12.14 12.14 0 0 1-2.12-1.68c-.62-.63-.85-1.15-.69-1.56q5.5-11.6 13.16-28.37t16.64-37.22q.25-.37 0-.43c-.16-.04-.16-.07 0-.07a4.25 4.25 0 0 1 1.44.38 10.66 10.66 0 0 1 1.8.93 7.59 7.59 0 0 1 1.5 1.25 2.83 2.83 0 0 1 .76 1.43 5.18 5.18 0 0 1-.7 2.68l-1.43 3.06a67.43 67.43 0 0 1 5.68-5.05 42.3 42.3 0 0 1 6.3-4.18 3.66 3.66 0 0 1 2.55-.3 7.5 7.5 0 0 1 2.5 1.11 7.86 7.86 0 0 1 3.05 4.43Zm-24.06 12.85q-2 3.87-3.68 7.73t-3.18 7.1a155.38 155.38 0 0 0 4.24-.8 13.93 13.93 0 0 1 2.5-.19q1.5 0 4.11.13a59.72 59.72 0 0 0 5.06-5.93 68.97 68.97 0 0 0 5.17-7.85 52.38 52.38 0 0 0 3.86-8.42 21.13 21.13 0 0 0 1.38-7.73 11.26 11.26 0 0 0-5 2 42.05 42.05 0 0 0-5.23 4.18q-2.62 2.43-4.99 5.1t-4.24 4.68Zm-6.24 19.82a1.75 1.75 0 0 0 1.5.13 10.36 10.36 0 0 0 2.12-.81 16.6 16.6 0 0 0 2.18-1.31 13.2 13.2 0 0 0 1.69-1.37h-1.94a13.28 13.28 0 0 0-3.11.37 6.92 6.92 0 0 0-2.5 1.06q-.93.7.06 1.94Z"/><path d="M509.08 141.31q-2 4.62-4.8 10.97t-5.86 13.34q-3.06 7-6.05 13.9t-5.17 12.6q-2.19 5.67-3.37 9.47t-.69 4.43a3.24 3.24 0 0 0 3.12.19 15.6 15.6 0 0 0 4.05-2.37 29.6 29.6 0 0 0 4.37-4.24 52.38 52.38 0 0 0 4.05-5.43q.62-.12 1.12-.24a1.33 1.33 0 0 1 .69-.07c.2.05.22.15.06.31a66.6 66.6 0 0 1-4.49 6.93 31.47 31.47 0 0 1-4.8 5.23 14.55 14.55 0 0 1-4.68 2.8 4.74 4.74 0 0 1-4.11-.37 8.9 8.9 0 0 1-3.93-5.3q-1.06-3.55 1.06-9.29 1.12-3.11 3.12-8.1t4.43-10.85q2.43-5.86 5.05-12.03t4.92-11.6q2.3-5.42 4.12-9.54t2.55-5.98c-.16-.67-.12-1 .13-1a3.35 3.35 0 0 1 1.62.62 11.1 11.1 0 0 1 1.93 1.56 7.13 7.13 0 0 1 1.43 2 2.56 2.56 0 0 1 .13 2.06Z"/><path d="M539.38 170.86q-1.12 2.37-2.75 5.67t-3.3 6.99q-1.69 3.68-3.3 7.48t-2.68 7.04a36.12 36.12 0 0 0-1.44 5.74 5.27 5.27 0 0 0 .38 3.62 17.32 17.32 0 0 0 7.35-4.24 44.36 44.36 0 0 0 7.36-8.98 6.55 6.55 0 0 1 1.25-.5 1.15 1.15 0 0 1 .62-.06c.17.04.17.23 0 .56q-1.87 2.99-4.18 6.04a40.1 40.1 0 0 1-4.73 5.3 19.6 19.6 0 0 1-4.8 3.37 4.77 4.77 0 0 1-4.37.13 5.96 5.96 0 0 1-3.24-4.06 16.07 16.07 0 0 1-.19-5.86 36.3 36.3 0 0 1 1.56-6.54q1.12-3.37 2.25-6.24-1 1.12-2.8 3.3t-4.12 4.8q-2.3 2.63-4.74 5.3t-4.74 4.87a51.76 51.76 0 0 1-4.11 3.55 4.45 4.45 0 0 1-2.8 1.25 6.44 6.44 0 0 1-3.25-1.68 8.75 8.75 0 0 1-2.24-2.8 6.63 6.63 0 0 1-.56-2.37 8.9 8.9 0 0 1 .18-2.37 31 31 0 0 1 1.81-6.05 56.04 56.04 0 0 1 3.74-7.67 81.16 81.16 0 0 1 5.24-7.92 44.64 44.64 0 0 1 6.17-6.79 21.7 21.7 0 0 1 6.73-4.18 10 10 0 0 1 6.86-.19 12.16 12.16 0 0 1 3.18 1.88 13.83 13.83 0 0 1 2.56 2.61 21.65 21.65 0 0 0 2-3.99 1.74 1.74 0 0 0 .12-.74v-.25a2.77 2.77 0 0 1 1.5.25 8.11 8.11 0 0 1 1.87 1 6.48 6.48 0 0 1 1.43 1.37 1.16 1.16 0 0 1 .17 1.36Zm-38.03 34.54q6.6-5.86 10.66-10.1t7.04-7.73q3-3.49 5.61-6.86t6.36-7.6a10.85 10.85 0 0 0-.68-1.37 4.19 4.19 0 0 0-1.44-1.37 5.5 5.5 0 0 0-5.55 0 20.87 20.87 0 0 0-6.1 4.86 60.59 60.59 0 0 0-5.93 7.8q-2.87 4.42-5.11 8.72a77.82 77.82 0 0 0-3.62 7.86 22.23 22.23 0 0 0-1.5 4.92Z"/><path d="M564.19 157.65q-2.25 4.86-4.56 9.97t-4.55 9.91q-2.24 4.8-4.17 9.04t-3.18 7.48a26.2 26.2 0 0 0-1.81 6.24 14.28 14.28 0 0 0-.06 3.99 5.25 5.25 0 0 0 .74 2.18 2.24 2.24 0 0 1 .5.94 6.16 6.16 0 0 0 3.37-.88 24.5 24.5 0 0 0 4-2.74 30.97 30.97 0 0 0 4.17-4.24 59.57 59.57 0 0 0 3.93-5.36c.41-.08.79-.17 1.12-.25a1.33 1.33 0 0 1 .68-.06c.21.04.23.14.07.3a61.19 61.19 0 0 1-4.5 6.87 34.41 34.41 0 0 1-4.73 5.17 15.73 15.73 0 0 1-4.68 2.93 5.62 5.62 0 0 1-4.17.13 10.37 10.37 0 0 1-6.24-4.74 8.06 8.06 0 0 1-.62-6.61q1.5-4.36 3.55-9.23t4.5-10.03q2.42-5.18 4.86-10.48t4.67-10.53h-5.11a1.83 1.83 0 0 1-1-.5 10.62 10.62 0 0 1-1.25-1.19q-.63-.68-1.5-1.68h10.35q2.12-4.86 4-9.42t3.48-8.66q-.5-.75 0-.75a5.14 5.14 0 0 1 2.18.56 8.11 8.11 0 0 1 2.06 1.37 5.33 5.33 0 0 1 1.31 1.87 2.39 2.39 0 0 1-.06 2.06l-5.86 12.97h7.73a1.85 1.85 0 0 1 1 .5 11.23 11.23 0 0 1 1.24 1.18q.63.69 1.5 1.69Z"/><path d="M570.04 191.68a14.3 14.3 0 0 0-1.5 4.37 15.64 15.64 0 0 0-.18 4.11 10.27 10.27 0 0 0 .81 3.25 3.5 3.5 0 0 0 1.75 1.87 12.76 12.76 0 0 0 6.04 1.12 22.03 22.03 0 0 0 7.05-1.5 27.03 27.03 0 0 0 7.04-4.06 27.55 27.55 0 0 0 6.05-6.67 1.07 1.07 0 0 1 .93-.56.84.84 0 0 1 .94.56 32.5 32.5 0 0 1-6.17 7.73 30.58 30.58 0 0 1-7.48 5.12 24.54 24.54 0 0 1-7.98 2.3 18.08 18.08 0 0 1-7.55-.68 13.66 13.66 0 0 1-3.05-1.5 10.56 10.56 0 0 1-2.74-2.55 9.63 9.63 0 0 1-1.69-3.87 14.86 14.86 0 0 1 0-5.42 37.06 37.06 0 0 1 1.88-6.36 45.3 45.3 0 0 1 3.49-7.17 50.88 50.88 0 0 1 4.86-6.8 29.4 29.4 0 0 1 5.86-5.36 17 17 0 0 1 6.48-2.74 11.17 11.17 0 0 1 6.86 1 16.4 16.4 0 0 1 3.55 2.5 5.02 5.02 0 0 1 1.81 3.86 20.71 20.71 0 0 1-2.61 10.22q-2.5 4.24-5.74 4.87-2.37.37-5.55.74t-6.1.69q-2.94.31-4.93.56a9.6 9.6 0 0 0-2.13.37Zm21.58-20.32a12.27 12.27 0 0 0-6.05 1.56 24.93 24.93 0 0 0-5.3 3.99 41.65 41.65 0 0 0-4.55 5.24q-2.06 2.8-3.8 5.42 5.24-.25 8.29-.56t5.42-.56a6.5 6.5 0 0 0 4.99-2.8 13.65 13.65 0 0 0 2.12-5.12 13.19 13.19 0 0 0 .06-4.92c-.3-1.5-.68-2.25-1.18-2.25Z"/><path d="M675.78 175.1a18.84 18.84 0 0 1-1.68 11.22 25.95 25.95 0 0 1-6.55 8.6 43.35 43.35 0 0 1-10.72 6.67 58.66 58.66 0 0 1-12.22 3.8 65.54 65.54 0 0 1-14.22 1.18 51.61 51.61 0 0 1-13.96-2.3l-.25.25a25.13 25.13 0 0 1-7.6 4.86 3.73 3.73 0 0 1-2.69-.31 8.64 8.64 0 0 1-2.68-1.81 5.57 5.57 0 0 1-1.5-2.5 2.36 2.36 0 0 1 .87-2.49 6.9 6.9 0 0 1 2.87-1.56 10.6 10.6 0 0 1 3.18-.37 15.22 15.22 0 0 1 2.87.38q1.3.3 2.05.43 1-1.37 2.87-3.61a21.64 21.64 0 0 0 2.75-4 11.08 11.08 0 0 0-3 .56q-1.87.57-4.24 1.44t-4.98 2.12l-5.24 2.5q-1.37.62-3-.88a5.47 5.47 0 0 1-1.86-3.24 12.96 12.96 0 0 1 .8-5.99 34.6 34.6 0 0 1 3.44-7.1 48.22 48.22 0 0 1 5.3-6.99 38.16 38.16 0 0 1 6.36-5.67 19.82 19.82 0 0 1 6.67-3.12 9.06 9.06 0 0 1 6.36.69 18.83 18.83 0 0 1 3.86 2.62 7.06 7.06 0 0 1 2.37 3.86 6.15 6.15 0 0 1-.25 3.87 5.62 5.62 0 0 1-2.5 2.87.88.88 0 0 1-.74-.13 6.32 6.32 0 0 1-1.06-.68 5.67 5.67 0 0 1-.87-.82c-.21-.25-.27-.4-.19-.5a5.79 5.79 0 0 0 2-3.99 8.95 8.95 0 0 0-.88-4.36 14.97 14.97 0 0 0-8.54 2.56 32.07 32.07 0 0 0-6.92 6.36 45.64 45.64 0 0 0-5.42 8.35q-2.31 4.55-4.06 8.54 4.12-2.37 7.11-3.74a44.13 44.13 0 0 1 6.61-2.37 7.5 7.5 0 0 1 2.37-.31 4.36 4.36 0 0 1 2.12.8 12.56 12.56 0 0 1 1.87 1.44 2.08 2.08 0 0 1 .62 2.06 9.96 9.96 0 0 1-1.62 3.74 30.17 30.17 0 0 1-3.36 4.24 65.67 65.67 0 0 0 22.44-.87 74.5 74.5 0 0 0 10.16-3.18 40.9 40.9 0 0 0 9.73-5.36 30.86 30.86 0 0 0 7.35-7.73 18 18 0 0 0 2.93-10.17 17.1 17.1 0 0 0-.37-4.55 15.33 15.33 0 0 0-1.62-4.3 7.93 7.93 0 0 0-2.18-2.43 7.21 7.21 0 0 0-3.18-1.06 12.4 12.4 0 0 0-9.36 2.5 9.97 9.97 0 0 0-2.86 3.67 8.1 8.1 0 0 0-.5 4.93c0 .33-.27.36-.81.06a5.82 5.82 0 0 1-.94-.56q-.62-.37-1.3-.87a2.5 2.5 0 0 1-.94-1.25 6.87 6.87 0 0 1-.06-6.17 11.1 11.1 0 0 1 4.3-4.68 11.33 11.33 0 0 1 5.42-1.62 15.57 15.57 0 0 1 5.8.88 22.57 22.57 0 0 1 8.92 5.98 17.29 17.29 0 0 1 4.55 9.61Zm-70.82 31.92a6.04 6.04 0 0 0 3.67-1.25 38.97 38.97 0 0 0 3.18-2.61 14.4 14.4 0 0 0-2.37-.07 6.85 6.85 0 0 0-2.49.57 4.4 4.4 0 0 0-1.75 1.3 2.18 2.18 0 0 0-.24 2.06Z"/></g><path fill="#300" d="M216.49 82.62H124v137.79h126.72V115.69l-33.93.03-.3-33.1z"/><path fill="#ff9a00" d="M220.16 82.62h-3.67l.3 33.1 33.93-.03v-2.41l-30.56-30.66zM187.5 186.28h-15.4l-3.15 9.97a.73.73 0 0 1-.78.6h-7.79c-.45 0-.58-.26-.45-.76l13.33-39.37c.12-.42.25-.9.41-1.4a15.17 15.17 0 0 0 .25-2.76.42.42 0 0 1 .33-.47h10.73c.33 0 .5.13.54.34l15.1 43.74c.13.47 0 .68-.4.68h-8.66a.63.63 0 0 1-.66-.47Zm-13-8.62h10.52c-.25-.9-.58-1.96-.96-3.06a133.1 133.1 0 0 1-1.11-3.65c-.42-1.32-.79-2.6-1.2-3.91s-.8-2.55-1.12-3.78c-.33-1.19-.62-2.3-.91-3.31h-.09a53.22 53.22 0 0 1-1.4 5.48l-1.9 6.28a83.2 83.2 0 0 1-1.83 5.94Zm35.36-18.14a5.05 5.05 0 0 1-3.69-1.48 5.6 5.6 0 0 1-1.4-3.91 5.06 5.06 0 0 1 1.49-3.78 5.23 5.23 0 0 1 3.68-1.49 4.9 4.9 0 0 1 3.77 1.49 5.95 5.95 0 0 1-.08 7.69 4.8 4.8 0 0 1-3.77 1.48Zm-4.64 36.86v-32.7c0-.42.17-.6.54-.6h8.2c.37 0 .54.22.54.6v32.7c0 .47-.17.68-.54.68h-8.12c-.41 0-.62-.25-.62-.68Z"/></svg>